STARTFONT 2.3
FONT -FontForge-Permanent Marker-Book-R-Normal--28-280-72-72-P-161-ISO10646-1
SIZE 28 72 72  4
FONTBOUNDINGBOX 44 40 -9 -9
COMMENT "Generated by fontforge, http://fontforge.sourceforge.net"
COMMENT "Copyright (c) 2010 by Font Diner, Inc. All rights reserved."
STARTPROPERTIES 40
FOUNDRY "FontForge"
FAMILY_NAME "Permanent Marker"
WEIGHT_NAME "Book"
SLANT "R"
SETWIDTH_NAME "Normal"
ADD_STYLE_NAME ""
PIXEL_SIZE 28
POINT_SIZE 280
RESOLUTION_X 72
RESOLUTION_Y 72
SPACING "P"
AVERAGE_WIDTH 161
CHARSET_REGISTRY "ISO10646"
CHARSET_ENCODING "1"
FONTNAME_REGISTRY ""
CHARSET_COLLECTIONS "ISO10646-1"
BITS_PER_PIXEL 4
FONT_NAME "PermanentMarker-Regular"
FACE_NAME "Permanent Marker Regular"
COPYRIGHT "Copyright (c) 2010 by Font Diner, Inc. All rights reserved."
FONT_VERSION "1.001"
FONT_ASCENT 22
FONT_DESCENT 6
UNDERLINE_POSITION -3
UNDERLINE_THICKNESS 2
X_HEIGHT 16
CAP_HEIGHT 19
RAW_ASCENT 799
RAW_DESCENT 200
NORM_SPACE 10
RELATIVE_WEIGHT 40
RELATIVE_SETWIDTH 50
SUPERSCRIPT_X 0
SUPERSCRIPT_Y 13
SUPERSCRIPT_SIZE 17
SUBSCRIPT_X 0
SUBSCRIPT_Y 3
SUBSCRIPT_SIZE 17
AVG_LOWERCASE_WIDTH 159
AVG_UPPERCASE_WIDTH 190
ENDPROPERTIES
CHARS 230
STARTCHAR space
ENCODING 32
SWIDTH 370 0
DWIDTH 10 0
BBX 1 1 0 0
BITMAP
00
ENDCHAR
STARTCHAR exclam
ENCODING 33
SWIDTH 260 0
DWIDTH 7 0
BBX 8 22 0 -1
BITMAP
00000850
0000AFD1
0001EFF7
0006FFF5
0009FFF7
000CFFF4
000DFFF0
002FFFC0
008FFFA0
00AFFF70
00CFFF50
00EFFF10
00FFFC00
00FFF600
00297000
00000000
02200000
1DFD8000
CFFFE000
BFFFA000
5FFF5000
07A40000
ENDCHAR
STARTCHAR quotedbl
ENCODING 34
SWIDTH 492 0
DWIDTH 14 0
BBX 13 14 2 7
BITMAP
004A40001A8100
00AFFB105FFE50
01EFFF709FFFC0
07FFFF50EFFF70
0BFFFC03FFFF20
0EFFF709FFFB00
3FFFF20DFFF500
7FFFE02FFFF100
9FFFA05FFFD000
AFFF708FFFA000
BFFF30BFFF4000
8FFD00AFFF1000
0CF7002EFB0000
02700006710000
ENDCHAR
STARTCHAR numbersign
ENCODING 35
SWIDTH 703 0
DWIDTH 20 0
BBX 21 21 0 0
BITMAP
0000000001000001000000
00000000BC00003E600000
00000004FF7000BFE10000
0000000AFFD002FFF70000
0000000EFFF106FFFA0000
0000004FFFB00BFFF50000
001678CFFFEEEFFFFB8100
009FFFFFFFFFFFFFFFFB10
00CFFFFFFFFFFFFFFFFE10
008FFFFFFA9AFFFD753000
00032EFFD004FFF7000000
00003FFF9009FFF3000000
02459FFFDCCEFFFD810000
1EFFFFFFFFFFFFFFFD1000
2FFFFFFFFFFFFFFFF80000
0EFFFFFC99FFFF66100000
025FFFE107FFF900000000
009FFF901EFFF300000000
00EFFF405FFFC000000000
00EFFF105FFF9000000000
004CE40008EB1000000000
ENDCHAR
STARTCHAR dollar
ENCODING 36
SWIDTH 493 0
DWIDTH 14 0
BBX 16 22 0 -1
BITMAP
0000000004100000
000000002FB00000
00000000AFF30000
00000000EFF70000
00000004FFFEB910
000017BFFFFFFFA0
005BFFFFFFFFFFF4
09FFFFFFFCCDCCC3
1FFFFFF500000000
1FFFFFFF92000000
09FFFFFFFD000000
002579BFFF800000
000000018FF30000
00000000AFF60000
0000004BFFF40000
00347CFFFFA00000
02FFFFFFFA100000
01FFFFFF60000000
00BFFFFC00000000
0007FFF600000000
0004FFE200000000
0000382000000000
ENDCHAR
STARTCHAR percent
ENCODING 37
SWIDTH 643 0
DWIDTH 18 0
BBX 18 20 1 0
BITMAP
00003C700000000293
0005EFF10000003EF4
007FFFF3000004EFF2
06FFFFFA00003EFFD0
2EFF7EFF2004EFFF60
7FFC6EFF702EFFF500
AFFFFFFF62DFFE4000
6FFFFFF93EFFE30000
07BCB823EFFE300000
0000002EFFE2000000
000003DFFE30310000
00004EFFE308FB0000
0005FFFD21BFFF1000
006FFFD21CFFFF4000
04FFFD20AFFFFFC000
1EFFD104FFD2DFF300
6FFF5009FFDBFFF700
BFFE000AFFFFFFF400
DFFB0003FFFFFC4000
7DB100003775200000
ENDCHAR
STARTCHAR ampersand
ENCODING 38
SWIDTH 599 0
DWIDTH 17 0
BBX 17 15 0 1
BITMAP
000000000340000000
000000006FE1000000
00000001EFFA000000
00058107FFFB000000
01CFFE7BFFFB000000
0BFFFFFFFFFA000000
8FFFDFFFFFFFEC8000
CFFEAFFFFFFFFFFB10
9FFFFFFFFFFFFFFF20
07EFFFFFFFDA985100
001558FFFF80000000
000003FFFF40000000
000005FFFE10000000
000005FFF900000000
0000018DB100000000
ENDCHAR
STARTCHAR quotesingle
ENCODING 39
SWIDTH 265 0
DWIDTH 7 0
BBX 7 14 2 7
BITMAP
004A4000
00AFFB10
01EFFF70
07FFFF50
0BFFFC00
0EFFF700
3FFFF200
7FFFE000
9FFFA000
AFFF7000
BFFF3000
8FFD0000
0CF70000
02700000
ENDCHAR
STARTCHAR parenleft
ENCODING 40
SWIDTH 361 0
DWIDTH 10 0
BBX 14 29 0 -5
BITMAP
00000000000771
0000000001BFF2
000000001CFFE0
00000003DFFFF0
0000003EFFFFB0
000002EFFFFF40
00000CFFFFC300
00008FFFFB1000
0004FFFFD10000
000CFFFF400000
004FFFFB000000
00AFFFF3000000
00DFFF90000000
00FFFF50000000
03FFFE00000000
07FFFA00000000
0EFFF600000000
0FFFF400000000
0FFFF300000000
1FFFF400000000
2FFFF400000000
2FFFF700000000
0DFFF900000000
0AFFFD00000000
07FFFF20000000
02EFFF10000000
004FFE00000000
0007FF30000000
00009E30000000
ENDCHAR
STARTCHAR parenright
ENCODING 41
SWIDTH 361 0
DWIDTH 10 0
BBX 13 29 -4 -5
BITMAP
00000003720000
00000007FE2000
00000002FFC000
00000002FFF900
00000005FFFF30
00000002FFFF70
00000000DFFFA0
00000000AFFFD0
000000008FFFE0
000000007FFFE0
000000006FFFD0
000000006FFFD0
000000008FFFC0
00000000BFFF70
00000000EFFF30
00000005FFFE00
0000000AFFFC00
0000002EFFF900
000000BFFFF400
000003FFFFD000
00000CFFFF5000
00009FFFFA0000
0009FFFFD10000
03DFFFFF400000
0CFFFFF5000000
2FFFFE50000000
2FFFE300000000
3FFD3000000000
4DC20000000000
ENDCHAR
STARTCHAR asterisk
ENCODING 42
SWIDTH 673 0
DWIDTH 19 0
BBX 18 15 2 6
BITMAP
000002500000040000
00005EF60019DF5000
0001EFFE21CFFE1000
0002FFFFDCFFF70000
00009FFFFFFFC00000
00003DFFFFFFA76300
8CDFFFFFFFFFFFFFA2
CFFFFFFFFFFFFFFFFA
9FFFFFFFFFFFDBA851
19B88FFFFFFF900000
0000AFFFDFFFE10000
0004FFFF2AFFF50000
001DFFF901EFF40000
002EFFD2003EF10000
000043000002300000
ENDCHAR
STARTCHAR plus
ENCODING 43
SWIDTH 579 0
DWIDTH 16 0
BBX 15 15 0 0
BITMAP
00000003C4000000
0000003FFC100000
0000008FFF600000
000000EFFF300000
000003FFFF500000
000258FFFF853000
5EFFFFFFFFFFFA00
8FFFFFFFFFFFFFB0
4FFFFFFFFFFFFC60
09EBBFFFF6320000
00007FFFF0000000
00009FFFC0000000
0000BFFF70000000
00009FFE10000000
0000047200000000
ENDCHAR
STARTCHAR comma
ENCODING 44
SWIDTH 204 0
DWIDTH 6 0
BBX 7 9 -3 -5
BITMAP
005D7100
00CFFF30
01FFFF60
05FFFF40
0AFFFF10
2FFFF800
CFFFE100
BFFF5000
06C40000
ENDCHAR
STARTCHAR hyphen
ENCODING 45
SWIDTH 609 0
DWIDTH 17 0
BBX 16 5 0 5
BITMAP
0001456677754000
2DFFFFFFFFFFFD20
3FFFFFFFFFFFFFE1
1EFFFFFFFFFFFD90
05DC975444321000
ENDCHAR
STARTCHAR period
ENCODING 46
SWIDTH 228 0
DWIDTH 6 0
BBX 6 6 -1 -1
BITMAP
022000
0BFE90
9FFFF1
9FFFC0
3FFF80
05B600
ENDCHAR
STARTCHAR slash
ENCODING 47
SWIDTH 401 0
DWIDTH 11 0
BBX 15 21 -1 -1
BITMAP
0000000000006E10
000000000006FF40
00000000004FFF50
0000000002EFFF40
000000001CFFFC10
000000007FFFD200
00000004FFFE3000
0000003EFFF40000
000001DFFF600000
00000AFFF8000000
00007FFFC0000000
0006FFFD20000000
005FFFE300000000
03FFFF4000000000
1DFFF70000000000
7FFF900000000000
CFFF100000000000
EFFD000000000000
EFFD000000000000
9FF6000000000000
0340000000000000
ENDCHAR
STARTCHAR zero
ENCODING 48
SWIDTH 686 0
DWIDTH 19 0
BBX 19 23 0 -1
BITMAP
00000000000220000000
00000000001DF6000000
0000000007FFFE300000
000000005FFFFFE00000
00000006FFFFFFF20000
0000008FFFFFFFC00000
000006FFFFFFFFE00000
00007FFFFFFFFFF60000
0003FFFFFEEBFFFC0000
001DFFFFE401EFFF4000
008FFFFF40008FFFB000
02FFFFF700002FFFF300
09FFFF9000000AFFF700
1EFFFF20000006FFFA00
4FFFF800000008FFFE00
7FFFF20000006EFFFF10
8FFFE000003BFFFFFF00
8FFFFA77ADFFFFFFFB00
6FFFFFFFFFFFFFFFD200
0EFFFFFFFFFFFFFB1000
04FFFFFFFFFFFE910000
006FFFFFFFFC60000000
0002678A841000000000
ENDCHAR
STARTCHAR one
ENCODING 49
SWIDTH 322 0
DWIDTH 9 0
BBX 8 22 0 -1
BITMAP
00071000
005FE300
008FFD30
008FFFD0
006FFFF3
003FFFF5
000DFFF7
000CFFF8
000CFFF9
000EFFF8
003FFFF7
007FFFF4
00CFFFF1
02FFFFC0
07FFFF80
0CFFFF40
1FFFFE00
4FFFF800
5FFFF300
2FFFF200
09FF6000
00110000
ENDCHAR
STARTCHAR two
ENCODING 50
SWIDTH 650 0
DWIDTH 18 0
BBX 19 21 1 0
BITMAP
00002455430000000000
04BEFFFFFFEA40000000
0DFFFFFFFFFFF6000000
0FFFFFFFFFFFFD300000
0EFFFFFFFFFFFFF30000
0AFFFFDBABFFFFF90000
0036510006FFFFFB0000
000000008FFFFFF50000
0000001AFFFFFF900000
000003DFFFFFFA000000
00004EFFFFFF80000000
0003EFFFFFD400000000
002EFFFFFD1000000000
01DFFFFFB10000000000
0BFFFFF800000248A500
2FFFFFB3578CFFFFFF20
4FFFFFFFFFFFFFFFFF80
4FFFFFFFFFFFFFFFFFC0
2FFFFFFFFFFFFFFFDA20
0CFFFFFFFFFFDA751000
029DEFEC974100000000
ENDCHAR
STARTCHAR three
ENCODING 51
SWIDTH 561 0
DWIDTH 16 0
BBX 17 20 -1 0
BITMAP
0000257ACEFFFF9000
02AEFFFFFFFFFFF600
0DFFFFFFFFFFFFFE10
1EFFFFFFFFFFFFFF60
4FFFFFFFFFFFFFFF20
2FFFFFFFFFFFFFE600
04774EFFFFFFFC2000
00009FFFFFFD500000
0000BFFFFFFA100000
0000DFFFFFFFE30000
00007FFFFFFFFE2000
000004BFFFFFFFA000
000000016CFFFFF300
00000000007FFFF800
0001000259FFFFF700
009EEEFFFFFFFFF300
00EFFFFFFFFFFF9000
03FFFFFFFFFFF60000
06FFFFFFFFE8100000
008BBBA97300000000
ENDCHAR
STARTCHAR four
ENCODING 52
SWIDTH 582 0
DWIDTH 16 0
BBX 15 22 1 -1
BITMAP
0000000008B00000
000000000EF90000
031000002FFF1000
2EA000004FFF7000
8FF700007FFF6000
8FFD00007FFF4000
7FFF40009FFF3000
5FFF8000AFFF8820
2FFFD767FFFFFFA0
0EFFFFFFFFFFFFF0
0CFFFFFFFFFFFFD0
06FFFFFFFFFFFA20
008FFFFFFFE61000
000235DFFF700000
000000EFFF100000
000002FFFC000000
000004FFF7000000
000005FFF7000000
000003FFFC000000
000000EFFF700000
0000008FFF600000
0000001AC9200000
ENDCHAR
STARTCHAR five
ENCODING 53
SWIDTH 580 0
DWIDTH 16 0
BBX 18 20 1 0
BITMAP
000005CC1000000000
0003CFFFD424557720
006FFFFFFFFFFFFF90
07FFFFFFFFFFFFFFE2
3FFFFFFFFFFFFFFFF7
7FFFFFFFFFFFFFFFC3
8FFFFFFFFEC8753100
9FFFFFF92000000000
6FFFFFFE7100000000
0CFFFFFFFB00000000
02AFFFFFFF90000000
00039FFFFFF6000000
0000015DFFFE100000
00000000BFFF700000
03210016EFFFC00000
7FFFFFFFFFFFD00000
8FFFFFFFFFFF800000
2EFFFFFFFFFD100000
05FFFFFFFFC2000000
00378BC88300000000
ENDCHAR
STARTCHAR six
ENCODING 54
SWIDTH 500 0
DWIDTH 14 0
BBX 15 22 -1 -1
BITMAP
0000000004300000
00000008EFE20000
0000008FFFF70000
000004FFFFFC0000
00001DFFFFFE1000
00007FFFFF920000
0001EFFFD2000000
0007FFFF30000000
000CFFF900000000
004FFFF200000000
00CFFFC003740000
02FFFF54CFFF9000
06FFFC4FFFFFF400
0BFFF6DFFFFFFE10
1FFFF5FFFFFFFF20
3FFFB7FFFFFFFF20
3FFFDDFFFFFFFC00
4FFFFFFFFFFFE300
2FFFFFFFFFFD3000
0CFFFFFFFF920000
02DFFFE962000000
0004540000000000
ENDCHAR
STARTCHAR seven
ENCODING 55
SWIDTH 576 0
DWIDTH 16 0
BBX 18 21 0 0
BITMAP
000222100000000000
09EFFFFEB840000000
6FFFFFFFFFFD100000
8FFFFFFFFFFF900000
AFFFFFFFFFFFF70000
5FFDCDFFFFFFFC0000
010000014BFFFE0000
0000000001FFFD0000
0000000003FFFB0000
0000000008FFFD4330
0001568CDFFFFFFFF3
007FFFFFFFFFFFFFF4
01FFFFFFFFFFFFFFE3
02FFFFFFFFFFFDA820
00AFFFFFFFF6100000
000557FFFFB0000000
00000AFFFE10000000
00001FFFF500000000
00004FFFE000000000
00004FFF7000000000
00000DDD1000000000
ENDCHAR
STARTCHAR eight
ENCODING 56
SWIDTH 537 0
DWIDTH 15 0
BBX 16 22 1 -1
BITMAP
0000046520001000
0006EFFFF801DC10
007FFFFFFF26FF80
05FFFFFFFFA8FFE0
0DFFFFFFFFD2FFF2
1FFFF74EFFB6FFF5
4FFFC006DFFFFFF5
4FFFE2006EFFFFC0
0EFFFD8EFFFFFE20
07FFFFFFFFFFC200
00CFFFFFFFF80000
00AFFFFFFA100000
02FFFFFFF5000000
08FFFFFFFB000000
0BFFD2DFFF100000
0CFFA03FFF600000
0BFFE66FFFA00000
09FFFFFFFF900000
02FFFFFFFF600000
009FFFFFFD000000
0008EFFF91000000
0000134200000000
ENDCHAR
STARTCHAR nine
ENCODING 57
SWIDTH 529 0
DWIDTH 15 0
BBX 15 22 1 -1
BITMAP
0000000355000000
000017DFFF900000
0003DFFFFFF70000
005FFFFFFFFE2000
05FFFFFFFFFFB000
1EFFFFE74DFFE000
7FFFFA248EFFF300
BFFFFFFFFFFFFB00
DFFFFFFFFFFFFF10
CFFFFFFFFFFFF600
6FFFFFFFFFFF7000
05ADDA75CFFE1000
00000000DFFA0000
00000002FFF80000
00000005FFF50000
00000008FFF10000
0000000BFFD00000
0000000DFFB00000
0000000FFF800000
0000002FFF400000
0000002FFD000000
0000000452000000
ENDCHAR
STARTCHAR colon
ENCODING 58
SWIDTH 241 0
DWIDTH 7 0
BBX 7 13 -1 -1
BITMAP
009FE700
00FFFF60
02FFFF60
00BFFF70
003EC300
00010000
00000000
02200000
0BFE9000
9FFFF100
9FFFC000
3FFF8000
05B60000
ENDCHAR
STARTCHAR semicolon
ENCODING 59
SWIDTH 245 0
DWIDTH 7 0
BBX 9 18 -3 -5
BITMAP
0000001000
00008FE800
0000EFFF80
0001FFFF80
00009FFF80
00002ED400
0000010000
0000000000
0000000000
0007D61000
000EFFE100
003FFFF400
007FFFF200
00CFFFD000
04FFFF5000
1DFFFC0000
1DFFE30000
017B300000
ENDCHAR
STARTCHAR less
ENCODING 60
SWIDTH 625 0
DWIDTH 18 0
BBX 18 14 0 0
BITMAP
000000000000014300
0000000000017EFFB1
00000000018EFFFFF2
00000015AFFFFFFFB1
000169FFFFFFFFC500
3BBEFFFFFFFFB40000
DFFFFFFFFC61000000
CFFFFFFC2000000000
3DFFFFFFE940000000
018EFFFFFFFD500000
00017DFFFFFFF70000
0000004AEFFFFF5000
00000000037CFFA000
000000000000240000
ENDCHAR
STARTCHAR equal
ENCODING 61
SWIDTH 586 0
DWIDTH 16 0
BBX 16 11 0 2
BITMAP
0000145667875400
04DFFFFFFFFFFFC1
08FFFFFFFFFFFFF8
09FFFFFFFFFFEC81
03B9643222100000
0000000000000000
14679ACDDEEEB100
9FFFFFFFFFFFFC00
BFFFFFFFFFFFE500
8FFECA8786551000
0310000000000000
ENDCHAR
STARTCHAR greater
ENCODING 62
SWIDTH 634 0
DWIDTH 18 0
BBX 18 14 -2 0
BITMAP
000043000000000000
0009FFD84100000000
0004EFFFFFC5000000
00005FFFFFFFE92000
000004BFFFFFFFF910
000000038DFFFFFFE5
0000000002BFFFFFFE
00000016CFFFFFFFFE
00004BFFFFFFFFEAA3
005DFFFFFFFF961000
1BFFFFFFFA51000000
1FFFFFE81000000000
0AFFE8100000000000
002310000000000000
ENDCHAR
STARTCHAR question
ENCODING 63
SWIDTH 556 0
DWIDTH 16 0
BBX 17 22 1 -1
BITMAP
000067886520000000
003DFFFFFFFEA62000
01DFFFFFFFFFFFFB10
09FFFFFFFFFFFFFF30
07FFFFFFFFFFFFFF30
01AE96679BEFFFFF30
0000000001CFFFFE00
000000004DFFFFF800
0000002AFFFFFFC100
000004EFFFFFFA1000
00006FFFFFFB300000
0006FFFFFE50000000
000EFFFE8200000000
004FFFC10000000000
001BDB100000000000
000000000000000000
013100000000000000
3FFD60000000000000
6FFFE0000000000000
8FFFE0000000000000
1EFFA1000000000000
05B500000000000000
ENDCHAR
STARTCHAR at
ENCODING 64
SWIDTH 732 0
DWIDTH 21 0
BBX 21 22 -1 -1
BITMAP
000000000007A881000000
00000000003FFFFE400000
00000000004FFFFFF50000
0000000002DFFFFFFD0000
000000005EFFFDAFFF6000
00000009FFFF9006FFE200
000001DFFFE50001AFFB00
00005DFFFC2022CB2FFF30
0006FFFFB108FFFE0AFFB0
005FFFFB03DFFFFD03FFD0
02EFFFB18FFFFFF902FFE0
0AFFFD18FFFCAFF603FFC0
1FFFF34FFFA09FF505FFA0
3FFFA08FFFA6AFFA3DFF40
1FFF204FFFFFFFFFFFF500
0FFC000AFFFFFFFFFD3000
0CFC50005BCCB954410000
08FFFD4000000000100000
009FFFFEBAA999ACD10000
0006EFFFFFFFFFFFFA0000
000017EFFFFFFFFFFE1000
0000000246888998510000
ENDCHAR
STARTCHAR A
ENCODING 65
SWIDTH 702 0
DWIDTH 20 0
BBX 21 22 -1 -1
BITMAP
0000000000010000000000
00000000000BE940000000
00000000007FFFF6000000
0000000006FFFFFA000000
0000001BDFFFFFFC000000
000000AFFFFFFFFE000000
000003FFFFFFFFFF100000
00000BFFFFFFFFFF500000
00004FFFFFE6FFFF800000
00009FFFFF31FFFFB00000
0001FFFFF800CFFFF22000
0008FFFFD1008FFFFFE700
001EFFFFCABDFFFFFFFF90
008FFFFFFFFFFFFFFFFD20
01EFFFFDFFFFFFFFFFA100
06FFFFA7FFFFFFFFFF5000
0DFFFE30ABA733FFFF7000
4FFFFA00000007FFFF8000
7FFFF6000001DFFFFF3000
1FFFF20000002FFFF90000
07FE400000000BFF800000
0010000000000031000000
ENDCHAR
STARTCHAR B
ENCODING 66
SWIDTH 686 0
DWIDTH 19 0
BBX 20 22 -1 -1
BITMAP
00000000245675300000
000158AEFFFFFFFA1000
02AFFFFFFFFFFFFFD300
4EFFFFFFFFFFFFFFFE10
BFFFFFFFFEB98EFFFF60
5FFFFFFC40009FFFFF60
09FFEBFE401AFFFFFE10
006B68FFF8EFFFFFF600
00000CFFFFFFFFFF8000
00001FFFFFFFFFF90000
00005FFFFFFFFFFA0000
00009FFFFFFFFFFFB100
0000DFFFFEA767BFFD10
0004FFFFA000000CFFB0
0008FFFF500001CFFFF2
000EFFFE00018EFFFFF4
004FFFFA039FFFFFFFE2
006FFFFDEFFFFFFFFF50
009FFFFFFFFFFFFFC400
004FFFFFFFFFFFD50000
000BFFDFFFFC84000000
00007506884000000000
ENDCHAR
STARTCHAR C
ENCODING 67
SWIDTH 611 0
DWIDTH 17 0
BBX 17 21 0 0
BITMAP
000000000000010000
000000000017FE8100
0000000006EFFFF900
00000005EFFFFFFF70
000004BFFFFFFFFF70
00008FFFFFFFFFFD10
001AFFFFFFFFFD8100
00BFFFFFFFE8200000
09FFFFFFFB10000000
4FFFFFFC5000000000
BFFFFF900000000000
FFFFF8000000000000
EFFFA0000000000000
DFFF30000000000000
AFFF40000000000000
6FFFD7410000000000
1EFFFFFFEDCCBB5000
07FFFFFFFFFFFFF400
008FFFFFFFFFFFFA00
0003DFFFFFFFFFF500
0000037ACEFEDC3000
ENDCHAR
STARTCHAR D
ENCODING 68
SWIDTH 588 0
DWIDTH 16 0
BBX 16 22 0 -1
BITMAP
0030000000000000
00EE820000000000
03FFFFB510000000
00EFFFFFF7000000
02DFFFFFFFB20000
06FFFEFFFFFE4000
04FFF25BFFFFF600
01FFF50019EFFF50
00EFF800003EFFE1
00DFF9000003EFF8
00DFFA0000007FFD
00EFF9000001DFFF
06FFF800004DFFFE
09FFF6004BFFFFF9
0DFFF44AFFFFFFD1
2FFFFEFFFFFFFC10
7FFFFFFFFFFF9100
8FFFFFFFFFC40000
6FFFFFFFC5000000
2FFFFFA300000000
09FE820000000000
0030000000000000
ENDCHAR
STARTCHAR E
ENCODING 69
SWIDTH 626 0
DWIDTH 18 0
BBX 19 22 0 -1
BITMAP
00000000000000011000
000000001479BDFFD200
0000148CFFFFFFFFFE20
003BFFFFFFFFFFFFFF20
00EFFFFFFFFFFFFFE500
00DFFFFFFFFFFC961000
00BFFFFFFDB500000000
006FFFFB100000000000
000DFFFD8889A1000000
002FFFFFFFFFFB100000
009FFFFFFFFFFFF10000
01FFFFFFFFFFFF900000
07FFFFFFFFFFC4000000
1FFFFF54544200000000
8FFFFA00000000000000
BFFFF300000158900000
AFFFEA9ABDEFFFFA1000
7FFFFFFFFFFFFFFF7000
5FFFFFFFFFFFFFFF3000
1CFFFFFFFFFFFFD40000
02AFFFFFEDDA74000000
00002321000000000000
ENDCHAR
STARTCHAR F
ENCODING 70
SWIDTH 575 0
DWIDTH 16 0
BBX 21 22 -1 -1
BITMAP
0000000000000257873000
00000000027BEFFFFFF600
00000038DFFFFFFFFFFF70
00048DFFFFFFFFFFFFFFD0
004FFFFFFFFFFFFECAA940
005FFFFFFFFB7410000000
002EFFFFFD100000000000
0004FFFFFB000000000000
00002FFFF5000000000000
00006FFFF1000000000000
0285CFFFD468ABC4000000
3EFFFFFFFFFFFFFD100000
7FFFFFFFFFFFFFFE200000
5FFFFFFFFFFFFFF5000000
0CFFFFFFFFCA7530000000
01EFFFD530000000000000
01FFFF5000000000000000
05FFFD1000000000000000
05FFFA0000000000000000
02EFFA0000000000000000
006FF40000000000000000
0001200000000000000000
ENDCHAR
STARTCHAR G
ENCODING 71
SWIDTH 789 0
DWIDTH 22 0
BBX 24 21 0 0
BITMAP
000000000000033000000000
0000000000007FF600000000
00000000003CFFFFD1000000
0000000019FFFFFFF5000000
00000004EFFFFFFFF6000000
0000006FFFFFFFFE81000000
00000AFFFFFFFE8100000000
00009FFFFFFF910000000000
000AFFFFFFD3000100000000
008FFFFFFA10006ED4000000
04FFFFFF800007FFFFB30000
1DFFFFF7000004FFFFFFA100
7FFFFF80000001EFFFFFFC10
DFFFFA000000007FFFFFFFD1
EFFFD1000000048EFFFFFFF3
BFFF6000269BEFFFFFFFFFC0
9FFFFEEEEFFFFFFFFFFFFB10
4FFFFFFFFFFFFFFFFFFD6000
0CFFFFFFFFFFFFFFD9400000
02EFFFFFFFFFFB7200000000
0019EFEDC864100000000000
ENDCHAR
STARTCHAR H
ENCODING 72
SWIDTH 695 0
DWIDTH 19 0
BBX 20 22 -1 -1
BITMAP
00000000000000006400
0000191000000004FC00
00009F8000000009FF40
0000EFF30000000AFFB0
0003FFFD1000000BFFF7
0005FFFF7000002FFFFB
0007FFFF7000002FFFFC
0008FFFF5000003FFFFD
000AFFFF3000006FFFFE
001DFFFF0000008FFFFB
001FFFFC000015DFFFF8
003FFFFB158BFFFFFFF4
009FFFFFFFFFFFFFFFF2
00EFFFFFFFFFFFFFFFD0
01FFFFFFFFFFFFFFFF60
07FFFFFFFFFB9FFFFE10
0AFFFFFFE7106FFFF900
1EFFFFF810008FFFFB00
2FFFFFD000006FFFFB00
0AFFFF5000000BFFF400
03DFF900000002DB3000
00252000000000000000
ENDCHAR
STARTCHAR I
ENCODING 73
SWIDTH 515 0
DWIDTH 14 0
BBX 20 22 -1 -1
BITMAP
00000000233455431000
00006ABEFFFFFFFFFA00
0000DFFFFFFFFFFFFFA0
0000BFFFFFFFFFFFFFF1
00007FFFFFFFFEEDB830
000019B77FFFF1000000
000000006FFFD0000000
00000000AFFF90000000
00000001EFFF40000000
00000004FFFE00000000
00000009FFFA00000000
0000001EFFF600000000
0000007FFFF200000000
000000CFFFC000000000
000003FFFF6000000000
00000AFFFE1000000000
00146FFFFECA10000000
AEFFFFFFFFFFD2000000
DFFFFFFFFFFFF6000000
AFFFFFFFFFFFB1000000
4FFFC976732200000000
03310000000000000000
ENDCHAR
STARTCHAR J
ENCODING 74
SWIDTH 668 0
DWIDTH 19 0
BBX 24 20 -1 0
BITMAP
00000036788ABCDDCCDC9700
0005CFFFFFFFFFFFFFFFFF50
003FFFFFFFFFFFFFFFFFFFF2
002FFFFFFFFFFFFFFFFFFFF5
000DFFFFFECBEFFFF989AA70
0002CE941000BFFFD0000000
000000000000EFFFA0000000
000000000002FFFF60000000
000000000005FFFF20000000
000000000009FFFE00000000
00000000000DFFFA00000000
00000000004FFFF600000000
00000000009FFFF200000000
0000000003EFFFC000000000
045200001CFFFF6000000000
4FFFC889DFFFFE1000000000
7FFFFFFFFFFFF90000000000
5FFFFFFFFFFFB00000000000
0BFFFFFFFFFA000000000000
00555ACEC940000000000000
ENDCHAR
STARTCHAR K
ENCODING 75
SWIDTH 776 0
DWIDTH 22 0
BBX 23 22 0 -1
BITMAP
000000210000000000000000
000003EF9200000000100000
00000CFFFD0000003CD30000
00004FFFFF40001AFFFE4000
0000DFFFFE2005EFFFFFF000
0003FFFFF8008FFFFFFFB000
0007FFFFE12CFFFFFFFB1000
000CFFFF85EFFFFFFE700000
003FFFFFCFFFFFFFA2000000
009FFFFFFFFFFFE500000000
00EFFFFFFFFFFD3000000000
05FFFFFFFFFFB20000000000
09FFFFFFFFFF700000000000
0DFFFFFFFFFFF50000000000
1FFFFFFFFFFFFFC753333000
5FFFFFFF76FFFFFFFFFFF700
9FFFFFF7005FFFFFFFFFFF30
8FFFFFB00003DFFFFFFFFE10
3FFFFE20000016CFFFFFF500
0DFFF5000000000479A93000
06FF70000000000000000000
002300000000000000000000
ENDCHAR
STARTCHAR L
ENCODING 76
SWIDTH 632 0
DWIDTH 18 0
BBX 18 22 0 -1
BITMAP
000005200000000000
00003FFC7000000000
00008FFFF400000000
0000CFFFF900000000
0002FFFFF300000000
0007FFFFD000000000
000DFFFF7000000000
003FFFFF1000000000
008FFFFB0000000000
00EFFFF40000000000
04FFFFE00000000000
09FFFF900000000000
0DFFFF300000000000
4FFFFD000000000000
7FFFF8000000000000
AFFFF603789AA71000
AFFFFFEFFFFFFFE920
8FFFFFFFFFFFFFFFC0
3FFFFFFFFFFFFFFFE1
0BFFFFFFFFFFFFFFC1
02DFFFFB7431024200
000354100000000000
ENDCHAR
STARTCHAR M
ENCODING 77
SWIDTH 973 0
DWIDTH 27 0
BBX 27 22 0 -1
BITMAP
0000000063000000000000000000
0000000CFE200000000000AB5000
0000008FFFFB0000000005FFF500
000003FFFFFF500000003EFFFF20
00000CFFFFFFC0000004EFFFFFB0
00006FFFFFFFD000005FFFFFFFD0
0000DFFFFFFFD00007FFFFFFFF90
0005FFFFFFFFD002BFFFFFFFFF70
000CFFFFFFFFFAAFFFFFFFFFFF30
004FFFFFFFFFFFFFFFFFFFFFFF40
00BFFFFFFFFFFFFFFFFFDEFFFF20
02FFFFFCFFFFFFFFFFF91EFFFE00
09FFFFF2AFFFFFFFFC404FFFFA00
1EFFFFA01CFFFFFC60007FFFFA00
6FFFFF600069A8400000AFFFF800
BFFFFE20000000000000CFFFF400
CFFFF600000000000000EFFFE000
BFFFF200000000000000EFFF9000
9FFF7000000000000000CFFF3000
5FFF30000000000000007FFB0000
0DFB000000000000000008400000
0251000000000000000000000000
ENDCHAR
STARTCHAR N
ENCODING 78
SWIDTH 684 0
DWIDTH 19 0
BBX 21 21 -1 0
BITMAP
0000000100000000230000
0000000AD60000008F6000
0000002FFFA00000CFFC10
0000009FFFF80004FFFF80
000001EFFFFF000AFFFFC0
000008FFFFFE000CFFFF70
00001EFFFFFB000EFFFD10
00007FFFFFF7002FFFF900
0001EFFFFFF1005FFFF700
0007FFFFFFF1009FFFF300
000EFFFFFFF100DFFFF100
006FFFFFFFF005FFFFE000
00DFFFFFFFF11DFFFFD000
06FFFFFFFFF3BFFFFF9000
0DFFFFFFFFFEFFFFFF4000
4FFFFFF4EFFFFFFFFE0000
2FFFFFB07FFFFFFFF60000
1EFFFF200CFFFFFFB00000
08FFFD0001DFFFFD100000
01EFF700002CFFC2000000
004E910000005500000000
ENDCHAR
STARTCHAR O
ENCODING 79
SWIDTH 744 0
DWIDTH 21 0
BBX 20 22 0 -1
BITMAP
0000000000008A400000
00000000004AFFE20000
0000000004EFFFFD3000
000000005EFFFFFF8000
0000000AFFFFFFFF3000
000000BFFFFFFFFF5000
00002CFFFFFFFFFFB000
0001CFFFFFFFCFFFF400
000AFFFFFE4209FFFB00
006FFFFFC20001EFFF40
02EFFFFC1000007FFFC0
0AFFFFB10000001DFFF1
1FFFFF3000000009FFF6
6FFFF7000000000BFFFB
9FFFE000000003AFFFFC
AFFFC0000015AFFFFFFA
AFFFFC99BDEFFFFFFFF4
6FFFFFFFFFFFFFFFFF70
0CFFFFFFFFFFFFFFE400
02DFFFFFFFFFFFA61000
002AFFFFFFCB72000000
00000224410000000000
ENDCHAR
STARTCHAR P
ENCODING 80
SWIDTH 639 0
DWIDTH 18 0
BBX 18 22 1 -1
BITMAP
000000004666510000
0000006EFFFFFFB200
00000BFFFFFFFFFE10
00009FFFFFFFFFFF80
0003FFFFFFFFFFFFE1
0009FFFFFFFFFFFFF6
000EFFFC30026EFFF9
018FFFF200027EFFFB
0BFFFFC147CFFFFFFA
4FFFFFFEFFFFFFFFF7
9FFFFFFFFFFFFFFFC1
CFFFFFFFFFFFFFFB10
CFFFFFFFFFFFFA4000
6FFFFFFFFDA6100000
2FFFFC852000000000
3FFFF7000000000000
6FFFF7000000000000
9FFFF5000000000000
CFFFF2000000000000
AFFFD0000000000000
2FFF60000000000000
034200000000000000
ENDCHAR
STARTCHAR Q
ENCODING 81
SWIDTH 744 0
DWIDTH 21 0
BBX 22 23 -1 -2
BITMAP
0000000000026350000000
00000000000EFFFC200000
00000000000EFFFFE30000
00000000008FFFFFFE1000
0000000006FFFFFFFF4000
00000001AFFFFFFFFFD100
0000002CFFFFFFEFFFF900
000002EFFFFFE606FFFF20
00006FFFFFFC2000AFFF90
0006FFFFFF9000002FFFF1
005FFFFFF60310000DFFF1
01EFFFFF507FFE403FFFF2
08FFFFF5007FFFE3CFFFF0
0EFFFF70000CFFFFFFFFD0
1FFFFB000002EFFFFFFF80
0EFFF300016BFFFFFFFB00
0DFFD448CFFFFFFFFFD100
0BFFFFFFFFFFFFFFFF9000
08FFFFFFFFFFFFFFFFE000
01BFFFFFFFFFFB5FFFF400
0007EFFFFDA61009FFFA00
0000044310000003EFF600
00000000000000003A6000
ENDCHAR
STARTCHAR R
ENCODING 82
SWIDTH 646 0
DWIDTH 18 0
BBX 19 22 0 -1
BITMAP
00000000026200000000
000000007FFE50000000
00000007FFFFF6000000
0000004FFFFFFF600000
000001EFFFFFFFE10000
00021CFFFFFFFFF80000
004FEFFFF98FFFFD0000
008FFFFFA009FFFF4000
00CFFFFC0006FFFF7000
00FFFFF427DFFFFF6000
03FFFFFDFFFFFFFE1000
07FFFFFFFFFFFFE40000
0CFFFFFFFFFFFB200000
0DFFFFFFFFD720000000
1FFFFFFFD30000000000
3FFFFFFFFB2000000000
6FFFFFFFFFFA62000000
8FFFFAFFFFFFFFEB8300
7FFFD08FFFFFFFFFFD00
2FFF8003BFFFFFFFFF10
09FC1000039EFFFFFE10
00200000000049CED600
ENDCHAR
STARTCHAR S
ENCODING 83
SWIDTH 576 0
DWIDTH 16 0
BBX 20 22 0 -1
BITMAP
00000000000145652000
0000000048DFFFFFF800
000016AEFFFFFFFFFF30
0017DFFFFFFFFFFFFFB0
05EFFFFFFFFFFFFFFFF3
3FFFFFFFFFC97A989B60
8FFFFFFF710000000000
AFFFFFFFE91000000000
9FFFFFFFFFE600000000
2DFFFFFFFFFF10000000
0159BDFFFFFF80000000
000000117DFFF4000000
00000000008FFC000000
0000000001DFFE000000
000000002BFFFD000000
00000029FFFFF8000000
00336AFFFFFFE1000000
05FFFFFFFFFE30000000
06FFFFFFFFD200000000
05FFFFFFE71000000000
01EFFFD7100000000000
00244200000000000000
ENDCHAR
STARTCHAR T
ENCODING 84
SWIDTH 607 0
DWIDTH 17 0
BBX 22 22 0 -1
BITMAP
0000000002000024566400
000002346FCBDFFFFFFF80
ADEEFFFFFFFFFFFFFFFFF7
EFFFFFFFFFFFFFFFFFFFFB
BFFFFFFFFFFFFFFFFFFFC4
6FFFFFFFFFFFD975321100
07BBA98CFFFF5000000000
0000000DFFFE0000000000
0000004FFFF80000000000
000000EFFFF20000000000
000003FFFFB00000000000
000009FFFF300000000000
00001EFFFC000000000000
00005FFFF5000000000000
0000AFFFE0000000000000
0000DFFF70000000000000
0000FFFF20000000000000
0000EFFE00000000000000
0000AFFE20000000000000
00005FFFF1000000000000
00001AFFE1000000000000
0000004830000000000000
ENDCHAR
STARTCHAR U
ENCODING 85
SWIDTH 695 0
DWIDTH 19 0
BBX 20 21 1 0
BITMAP
00000000000000002000
0000000000000007F600
0010000000000009FF20
02C900000000001FFF50
09FF60000000003FFFA0
0CFFE1000000006FFFF0
1FFFF600000000AFFFF2
1FFFFB00000000EFFFD0
5FFFFC00000006FFFFA0
7FFFF70000000DFFFF80
8FFFF40000008FFFFE20
9FFFF3000006FFFFF800
9FFFF300007FFFFFE100
8FFFF5003BFFFFFF7000
8FFFFA7CFFFFFFF60000
6FFFFFFFFFFFFF500000
0BFFFFFFFFFFFA000000
0AFFFFFFFFFFB1000000
03FFFFFFFFF800000000
009FFFFFFB3000000000
00059AB9300000000000
ENDCHAR
STARTCHAR V
ENCODING 86
SWIDTH 583 0
DWIDTH 16 0
BBX 18 22 1 -1
BITMAP
001000000000003200
09F50000000005FFC0
2FFC100000004FFFF2
2FFFB0000002EFFFF5
2FFFF300001CFFFFF1
0FFFF700009FFFFFA0
0EFFFA0005FFFFFD10
0DFFFC001DFFFFE200
0EFFFD009FFFFF4000
0EFFFF04FFFFF70000
0DFFFF2DFFFFA00000
09FFFFCFFFFD100000
07FFFFFFFFF5000000
06FFFFFFFFC0000000
03FFFFFFFE30000000
00FFFFFFF600000000
00CFFFFFE100000000
009FFFFE3000000000
002FFFFB0000000000
000DFFF80000000000
0002EFC10000000000
000003000000000000
ENDCHAR
STARTCHAR W
ENCODING 87
SWIDTH 994 0
DWIDTH 28 0
BBX 30 22 0 -1
BITMAP
000000000000000000000000013000
00000990000000000000000008F500
00008FF900000002200000001EFF40
0002FFFF8000001DE50000008FFFB0
0009FFFF8000009FFF300000EFFFF1
001EFFFF400004FFFFC00005FFFFF2
006FFFFE00001DFFFFC0000BFFFFB0
00AFFFF900008FFFFF90002FFFFF40
00EFFFF40002FFFFFF60008FFFFC00
03FFFFE0000BFFFFFF3000EFFFF600
06FFFF90005FFFFFFE0006FFFFE100
0AFFFF5001EFFFFFFB001DFFFF8000
0DFFFF100BFFFFFFFA008FFFFF2000
1FFFFD00AFFFFFFFFB06FFFFFA0000
4FFFFB1BFFFFFFFFFE9FFFFFF30000
6FFFFCDFFFFFFCDFFFFFFFFFA00000
2FFFFFFFFFFFB14FFFFFFFFE200000
0AFFFFFFFFFA000CFFFFFFF6000000
02FFFFFFFF700003FFFFFFA0000000
006FFFFFC30000009FFFFB10000000
0002AC94000000000AFF9000000000
000000000000000000100000000000
ENDCHAR
STARTCHAR X
ENCODING 88
SWIDTH 623 0
DWIDTH 17 0
BBX 21 21 -1 -1
BITMAP
0005D92000000000075000
000AFFE500000005DFF400
0009FFFF5000019FFFFB00
000CFFFFF3003DFFFFFF10
0007FFFFFE17FFFFFFF800
0001DFFFFFEFFFFFFE7100
00002EFFFFFFFFFFB20000
000004FFFFFFFFF7000000
000000AFFFFFFE30000000
000003EFFFFFD200000000
00004EFFFFFFE200000000
0002EFFFFFFFFA00000000
002EFFFFFFFFFF50000000
01DFFFFFC9FFFFE2000000
08FFFFFB10CFFFFC000000
1FFFFFA0003FFFFF300000
4FFFFC100009FFFF800000
6FFFE2000002FFFF900000
4FFF70000000BFFF300000
0CFF300000001BF8000000
02C6000000000020000000
ENDCHAR
STARTCHAR Y
ENCODING 89
SWIDTH 493 0
DWIDTH 14 0
BBX 16 22 1 -1
BITMAP
0520000000005800
4FE81000002CFF91
6FFFC00001CFFFFB
3FFFF2001BFFFFFC
1FFFF6009FFFFFE3
1FFFF803FFFFFE20
0DFFFC1DFFFFE400
0AFFFEBFFFFF6000
07FFFFFFFFF70000
02FFFFFFFFC00000
00BFFFFFFF300000
003FFFFFF9000000
000AFFFFE2000000
003FFFFF60000000
00BFFFFB00000000
04FFFFF300000000
0BFFFF9000000000
4FFFFF3000000000
AFFFF70000000000
BFFFE10000000000
5FFF800000000000
05BA000000000000
ENDCHAR
STARTCHAR Z
ENCODING 90
SWIDTH 664 0
DWIDTH 19 0
BBX 21 23 -1 -2
BITMAP
0000000011000000000000
000009DEFFFDDDEDDEA100
00000EFFFFFFFFFFFFF900
00000CFFFFFFFFFFFFFF50
000007FFFFFFFFFFFFFF60
000000ADCB99BFFFFFFE10
000000000003EFFFFFE300
00000000005FFFFFFA1000
0000000009FFFFFF800000
00000004DFFFFFF8000000
000001AFFFFFFF80000000
00002DFFFFFFE500000000
0008EFFFFFFB1000000000
01CFFFFFFE600000000000
08FFFFFFC2000001200000
0EFFFFF8000036BFE30000
3FFFFFA0159EFFFFFC5000
4FFFFFFEFFFFFFFFFF6000
2FFFFFFFFFFFFFFFF70000
09FFFFFFFFFFFFD8200000
01DFFFFFFFBC8300000000
0017EFFC96000000000000
0000120000000000000000
ENDCHAR
STARTCHAR bracketleft
ENCODING 91
SWIDTH 387 0
DWIDTH 11 0
BBX 21 31 -1 -5
BITMAP
0000000000012234310000
00000028ACFFFFFFFFE600
0000008FFFFFFFFFFFFF70
0000006FFFFFFFFFFFFFC0
0000007FFFFFFEEEDC9610
000000AFFF820000000000
000000DFFF300000000000
000001FFFF000000000000
000005FFFC000000000000
000009FFF8000000000000
00000DFFF4000000000000
00002FFFF1000000000000
00006FFFC0000000000000
0000AFFF80000000000000
0000EFFF40000000000000
0003FFFF10000000000000
0007FFFC00000000000000
000CFFF800000000000000
001FFFF500000000000000
005FFFF100000000000000
009FFFB000000000000000
00EFFF7000000000000000
03FFFF2000000000000000
08FFFD0000000000000000
0CFFF80000000000000000
2FFFF42344410000000000
7FFFFFFFFFFD3000000000
CFFFFFFFFFFFF100000000
9FFFFFFFFFFFC000000000
4FFFFEBBB8760000000000
0775200000000000000000
ENDCHAR
STARTCHAR backslash
ENCODING 92
SWIDTH 352 0
DWIDTH 10 0
BBX 8 22 1 -1
BITMAP
1A300000
4FF50000
4FFF3000
2FFF8000
0EFFA000
0CFFC000
0AFFE000
06FFF100
02FFF300
00FFF500
00DFF800
00BFFC00
008FFE00
004FFF20
002FFF50
000FFF70
000DFF80
000CFFB0
000DFFC0
000BFFF1
0007FFD0
00007830
ENDCHAR
STARTCHAR bracketright
ENCODING 93
SWIDTH 403 0
DWIDTH 11 0
BBX 20 31 -8 -5
BITMAP
00000000002345664100
0000000ACEFFFFFFFF70
0000003FFFFFFFFFFFF6
0000001FFFFFFFFFFFF8
0000000BFFFECCDFFFF5
000000028520001FFFF2
000000000000003FFFD0
000000000000007FFFA0
00000000000000AFFF60
00000000000000EFFF20
00000000000004FFFE00
00000000000008FFFA00
0000000000000CFFF600
0000000000000FFFF200
0000000000003FFFD000
0000000000008FFF9000
000000000000CFFF5000
000000000002FFFF2000
000000000007FFFD0000
00000000000BFFFA0000
00000000001FFFF60000
00000000005FFFF10000
00000000009FFFB00000
0000000000EFFF700000
0000000004FFFF200000
000001234AFFFD000000
479BDFFFFFFFF8000000
CFFFFFFFFFFFF3000000
9FFFFFFFFFFFC0000000
4FFFFDBBB87600000000
07752000000000000000
ENDCHAR
STARTCHAR asciicircum
ENCODING 94
SWIDTH 518 0
DWIDTH 15 0
BBX 13 16 0 5
BITMAP
000000007B3000
00000005FFE100
00000008FFF600
0000003FFFFA00
000000CFFFFD00
000007FFFFFF20
00001EFFFFFF40
0000AFFFEFFF50
0005FFFD4FFF90
003EFFF52FFF90
01DFFFA01FFF90
0BFFFE100EFF90
7FFFF5000BFFA0
DFFF900006FFC0
CFFB000000AFC0
6EB10000002D50
ENDCHAR
STARTCHAR underscore
ENCODING 95
SWIDTH 708 0
DWIDTH 20 0
BBX 23 5 -3 -1
BITMAP
000013555555556532100000
7EFFFFFFFFFFFFFFFFFE9100
8FFFFFFFFFFFFFFFFFFFFE60
4FFFFFFFFFFFFFFFFFFFFE70
04CECA976666666655431000
ENDCHAR
STARTCHAR grave
ENCODING 96
SWIDTH 754 0
DWIDTH 21 0
BBX 9 9 8 12
BITMAP
05B1000000
4FFD300000
BFFFE30000
BFFFFE3000
19FFFFE300
007FFFFD20
0005FFFF40
00003DFF20
0000006600
ENDCHAR
STARTCHAR a
ENCODING 97
SWIDTH 581 0
DWIDTH 16 0
BBX 18 18 -1 -1
BITMAP
000000000472000000
000000002EFFB00000
00000002CFFFF10000
000003CEFFFFF30000
00000CFFFFFFF50000
00005FFFFFFFF90000
0000DFFFFAFFFC0000
0004FFFF90EFFF0000
000BFFFD10BFFF7400
003FFFF513AFFFFF91
00AFFFFFFFFFFFFFE1
03FFFFEFFFFFFFFC30
09FFFAAFFFFFFFF500
1FFFF2299736FFF700
6FFFB000005CFFF700
5FFF7000008FFFE100
1CFB1000001EFE4000
014100000001510000
ENDCHAR
STARTCHAR b
ENCODING 98
SWIDTH 573 0
DWIDTH 16 0
BBX 17 18 -1 -1
BITMAP
0000258BCDEB800000
028DFFFFFFFFFD2000
4EFFFFFFFFFFFFE100
AFFFFFFEA78FFFF600
3FFFFF8001CFFFF500
05EE7FF56EFFFFC000
00119FFFFFFFFE2000
0000DFFFFFFFE30000
0001FFFFFFFFE40000
0005FFFFFFFFFF6000
0009FFFA51018FF500
000EFFF10001CFFD00
006FFFB0016DFFFF20
00AFFF639EFFFFFD10
00EFFFFFFFFFFFE300
00DFFFFFFFFFE81000
006FFFFFFFC7100000
000672897100000000
ENDCHAR
STARTCHAR c
ENCODING 99
SWIDTH 513 0
DWIDTH 14 0
BBX 14 18 0 -1
BITMAP
00000000018700
000000017EFFC1
0000007EFFFFFB
00005CFFFFFFFA
0008FFFFFFFFD2
00BFFFFFFE9500
09FFFFFF700000
5FFFFFA3000000
DFFFF600000000
FFFF5000000000
EFFA0000000000
CFF80000000000
8FFE7310000000
2FFFFFFEDDCB20
07FFFFFFFFFFD0
006EFFFFFFFFE1
00026BEFFFFD30
00000001221000
ENDCHAR
STARTCHAR d
ENCODING 100
SWIDTH 497 0
DWIDTH 14 0
BBX 14 18 0 -1
BITMAP
02A40000000000
06FFD710000000
04FFFFFB200000
06FFFFFFE50000
09FFAEFFFF8000
06FF604AFFFA00
04FF90003EFF70
03FFB00003EFE1
03FFC000008FF5
05FFB00003EFF7
0AFFA0018FFFF4
0DFF817FFFFFA0
3FFFDFFFFFFB10
8FFFFFFFFF7000
8FFFFFFFB20000
5FFFFF93000000
1DFD7100000000
01400000000000
ENDCHAR
STARTCHAR e
ENCODING 101
SWIDTH 521 0
DWIDTH 15 0
BBX 16 18 0 -1
BITMAP
0000000002479800
0000148CFFFFFFC2
005CFFFFFFFFFFF3
04FFFFFFFFFFFE60
02FFFFFFFEA74000
00EFFFC641000000
007FFF9455600000
008FFFFFFFF80000
01EFFFFFFFFF9000
07FFFFFFFFFC2000
1DFFFBBBBA500000
6FFFD10000000000
AFFF600000484000
AFFFBABDEFFFE500
7FFFFFFFFFFFFC00
4FFFFFFFFFFFE400
07FFFFFFFEB71000
0014553110000000
ENDCHAR
STARTCHAR f
ENCODING 102
SWIDTH 455 0
DWIDTH 13 0
BBX 18 18 -1 -1
BITMAP
00000000047ADEEA10
0000015AEFFFFFFFD1
0016BFFFFFFFFFFFF7
00AFFFFFFFFECA8871
00AFFFFFD730000000
002EFFFF4000000000
0003DFFE1000000000
0001FFFA0000000000
05A9FFFB79BCB00000
5FFFFFFFFFFFF80000
7FFFFFFFFFFFF30000
2EFFFFFFFEB9400000
04FFFD741000000000
05FFF5000000000000
09FFE1000000000000
07FFC0000000000000
01DFA0000000000000
001510000000000000
ENDCHAR
STARTCHAR g
ENCODING 103
SWIDTH 652 0
DWIDTH 18 0
BBX 20 18 0 -1
BITMAP
00000000002B60000000
0000000007EFFB100000
00000004DFFFFF700000
0000009FFFFFFF700000
00002BFFFFFFD6000000
0001DFFFFFD600000000
002DFFFFF91000000000
01DFFFFE40019D500000
09FFFFD2000BFFFB3000
3FFFFD200007FFFFF900
BFFFE2000002EFFFFFA1
EFFF50000001CFFFFFF5
CFFB000479DFFFFFFFE2
9FFFFEEFFFFFFFFFFE40
4FFFFFFFFFFFFFFD6100
0BFFFFFFFFFFB7300000
019FFFFDA96100000000
00013210000000000000
ENDCHAR
STARTCHAR h
ENCODING 104
SWIDTH 582 0
DWIDTH 16 0
BBX 17 18 -1 -1
BITMAP
00002100000007C000
0002E60000000EF400
0007FE2000002FFB00
000BFFC000003FFF70
000DFFF300007FFF90
000EFFF200007FFFA0
001FFFF00000AFFFB0
004FFFC00000CFFF90
007FFFA00038FFFF50
00AFFFB7AEFFFFFF20
01FFFFFFFFFFFFFF00
03FFFFFFFFFFFFF900
09FFFFFFFCAFFFF300
0CFFFFFA305FFFD000
2FFFFF30007FFFF000
0DFFFA00003FFFC000
07FFE1000008FB2000
005510000000100000
ENDCHAR
STARTCHAR i
ENCODING 105
SWIDTH 320 0
DWIDTH 9 0
BBX 7 18 1 -1
BITMAP
0002A200
001EF700
006FFE10
00BFFF20
00FFFF60
01FFFF40
05FFFE00
09FFF900
0DFFF500
2FFFF100
3FFFD000
4FFFB000
6FFF9000
5FFF9000
1FFFB000
0BFFC000
05FF8000
00530000
ENDCHAR
STARTCHAR j
ENCODING 106
SWIDTH 534 0
DWIDTH 15 0
BBX 20 18 -1 -1
BITMAP
00000002234566665300
0007ADFFFFFFFFFFFF80
008FFFFFFFFFFFFFFFF5
007FFFFFFFFFFFFFFFF7
002EFFCA87CFFF645550
0002630000CFFF100000
0000000000EFFC000000
0000000003FFF8000000
0000000007FFF5000000
000000000CFFF1000000
000000002FFFC0000000
000000008FFF70000000
04410004FFFF20000000
5FFEA9BFFFFB00000000
7FFFFFFFFFF400000000
2FFFFFFFFF5000000000
05A9CFFEA30000000000
00000120000000000000
ENDCHAR
STARTCHAR k
ENCODING 107
SWIDTH 645 0
DWIDTH 18 0
BBX 19 18 0 -1
BITMAP
00000981000000000000
00007FFE300000791000
0001EFFF80004DFFC100
0008FFFF6019FFFFF900
000CFFFD02CFFFFFE300
002FFFF55EFFFFFC3000
008FFFFAFFFFFE700000
00DFFFFFFFFFC2000000
04FFFFFFFFFA10000000
0AFFFFFFFF8000000000
0EFFFFFFFFB000000000
1FFFFFFFFFFC52001000
5FFFFFE6DFFFFFFFFC10
9FFFFF302CFFFFFFFF90
7FFFF700019FFFFFFF40
3FFFB00000018CFFE600
0CFD2000000000000000
01610000000000000000
ENDCHAR
STARTCHAR l
ENCODING 108
SWIDTH 533 0
DWIDTH 15 0
BBX 15 18 0 -1
BITMAP
0000B94000000000
0002FFFA00000000
0006FFFF10000000
000BFFFA00000000
002FFFF500000000
007FFFD000000000
00DFFF9000000000
03FFFF2000000000
09FFFD0000000000
0DFFF70000000000
3FFFF10000000000
7FFFB00000000000
AFFF904678850000
AFFFFEFFFFFFD600
8FFFFFFFFFFFFF10
2EFFFFFFFFFFFF40
08FFFFE986688500
0036530000000000
ENDCHAR
STARTCHAR m
ENCODING 109
SWIDTH 814 0
DWIDTH 23 0
BBX 23 18 0 -1
BITMAP
0000008D2000000000251000
000006FFE800000000CFD100
00002EFFFF40000008FFFC00
0000AFFFFFB000008FFFFF50
0004FFFFFFB0000AFFFFFF60
000BFFFFFFB002BFFFFFFF30
003FFFFFFFE68FFFFFFFFE00
00AFFFFFFFFFFFFFFFFFFE00
02FFFFFFFFFFFFFFFBFFFD00
08FFFF9FFFFFFFFC37FFF800
1EFFFC0BFFFFFE700BFFF700
6FFFF7008CDB61000EFFF600
AFFFF300000000002FFFF200
CFFF8000000000003FFFC000
BFFF3000000000003FFF7000
8FFA0000000000001EFF1000
3FF400000000000006A30000
055000000000000000000000
ENDCHAR
STARTCHAR n
ENCODING 110
SWIDTH 564 0
DWIDTH 16 0
BBX 18 18 -1 -1
BITMAP
00000064000001B200
000001EFA10005FE60
000008FFFA000BFFF3
00001EFFFF101FFFF6
00007FFFFE104FFFF2
0001EFFFFB006FFF80
0006FFFFF6009FFF50
000DFFFFF500DFFF20
006FFFFFF503FFFF00
00DFFFFFF50AFFFD00
05FFFFFFF55FFFFB00
0CFFFFFFFCFFFFF600
4FFFFF6FFFFFFFF200
4FFFF90AFFFFFF8000
0EFFF101EFFFFC0000
07FFD0003EFFD20000
00CE50000298100000
000100000000000000
ENDCHAR
STARTCHAR o
ENCODING 111
SWIDTH 628 0
DWIDTH 18 0
BBX 17 19 0 -1
BITMAP
000000000011000000
0000000003DE400000
000000008FFFE40000
00000009FFFFFD0000
000002DFFFFFF90000
00002DFFFFFFFB0000
0003EFFFFFFFFF3000
001DFFFFB63DFFB000
00BFFFF90005FFF400
06FFFF800000CFFC00
1EFFF80000004FFF10
5FFFD10000001FFF60
9FFF50000001AFFF90
BFFF1000028EFFFF70
AFFFDAACEFFFFFFE20
5FFFFFFFFFFFFFE400
0AFFFFFFFFFFE91000
009FFFFFFEB5000000
000144651000000000
ENDCHAR
STARTCHAR p
ENCODING 112
SWIDTH 524 0
DWIDTH 15 0
BBX 16 18 0 -1
BITMAP
0000004ADDDA6100
000009FFFFFFFD10
00008FFFFFFFFF80
0002FFFFFFFFFFE0
0009FFFEBACFFFF4
001DFFD10006FFF6
02EFFF7048DFFFF7
0AFFFFDFFFFFFFF5
0FFFFFFFFFFFFFB0
2FFFFFFFFFFFE800
0EFFFFFFFFC61000
09FFFDA741000000
09FFF40000000000
0DFFF40000000000
1FFFF20000000000
2FFFE00000000000
0BFF700000000000
0274000000000000
ENDCHAR
STARTCHAR q
ENCODING 113
SWIDTH 625 0
DWIDTH 18 0
BBX 18 19 -1 -2
BITMAP
0000000005DB910000
000000000AFFFE3000
000000001EFFFFE200
00000002CFFFFFF700
0000005EFFFFFFFF20
000008FFFFFB8FFFB0
0001AFFFFF7006FFF3
001CFFFFE30000CFFA
00BFFFFC2441008FFB
05FFFFB12FFF41EFFB
0DFFFC100CFFECFFF9
1FFFE20002EFFFFFF5
0EFF800038DFFFFFA0
0EFF86AEFFFFFFFC10
0BFFFFFFFFFFFFFC00
06FFFFFFFFFFDFFF20
005DFFFFEB612FFF70
0000465200000AFF60
000000000000008600
ENDCHAR
STARTCHAR r
ENCODING 114
SWIDTH 541 0
DWIDTH 15 0
BBX 16 18 0 -1
BITMAP
00000005CA100000
0000006FFFD20000
000004FFFFFD1000
00002EFFFFFF9000
0045DFFFEFFFF100
00CFFFFA0BFFF700
01FFFFB003FFFB00
04FFFF339EFFFB00
07FFFFEFFFFFF500
0CFFFFFFFFFF7000
0FFFFFFFFE820000
2FFFFFFB40000000
4FFFFFFD50000000
8FFFFFFFFC741000
AFFF8EFFFFFFFD80
5FFE12CFFFFFFFF1
2EF70004AFFFFFF1
01300000016BEE90
ENDCHAR
STARTCHAR s
ENCODING 115
SWIDTH 463 0
DWIDTH 13 0
BBX 17 18 0 -1
BITMAP
0000000158ACDB5000
000005BFFFFFFFE200
0039EFFFFFFFFFFA00
09FFFFFFFFFFFFFF10
6FFFFFFD8546546200
9FFFFFE50000000000
9FFFFFFFC400000000
3EFFFFFFFF10000000
0159ACEFFF90000000
00000006CFF4000000
000000004FF9000000
00000002EFF9000000
0000029FFFF5000000
0256BFFFFFC0000000
09FFFFFFFC10000000
09FFFFFF9100000000
06FFFEA30000000000
006741000000000000
ENDCHAR
STARTCHAR t
ENCODING 116
SWIDTH 479 0
DWIDTH 13 0
BBX 19 18 0 -1
BITMAP
000000057568BCDDA000
79AACDFFFFFFFFFFFB00
EFFFFFFFFFFFFFFFFF20
BFFFFFFFFFFFFFEDC700
5FFFFFFFFFA420000000
034321EFFF2000000000
000005FFFA0000000000
00000DFFF40000000000
00003FFFD00000000000
00009FFF600000000000
0000EFFE100000000000
0005FFF8000000000000
0008FFF2000000000000
000AFFB0000000000000
0008FF90000000000000
0004FFE4000000000000
0000CFF9000000000000
00000781000000000000
ENDCHAR
STARTCHAR u
ENCODING 117
SWIDTH 584 0
DWIDTH 16 0
BBX 16 17 1 0
BITMAP
0000000000000930
0000000000001FE2
03C1000000006FF5
0CFC100000009FFA
0EFF50000000CFFE
2FFFB0000001FFFE
4FFFE0000007FFFB
7FFFA000001DFFF8
9FFF7000009FFFE1
9FFF600008FFFF80
9FFF6001AFFFFE10
8FFFA49EFFFFD500
7FFFFFFFFFFE3000
0EFFFFFFFFF60000
0AFFFFFFFF700000
03FFFFFFC4000000
004CDFB500000000
ENDCHAR
STARTCHAR v
ENCODING 118
SWIDTH 485 0
DWIDTH 14 0
BBX 15 18 1 -1
BITMAP
057000000002B810
1FF40000002DFF60
2FFE100001CFFF90
2FFF80000AFFFF60
0FFFC0006FFFFC10
0EFFE002EFFFE200
0EFFF10BFFFF4000
0EFFF25FFFF60000
0DFFF5EFFFA00000
0AFFFEFFFD100000
08FFFFFFF6000000
06FFFFFFC0000000
04FFFFFF10000000
01FFFFF900000000
00BFFFC000000000
006FFF8000000000
001BFE2000000000
0000410000000000
ENDCHAR
STARTCHAR w
ENCODING 119
SWIDTH 825 0
DWIDTH 23 0
BBX 25 18 0 -1
BITMAP
00002300000000000000067000
0001EF400000010000001EF700
000AFFE300004E6000006FFF10
002FFFF30001DFF50000DFFF50
008FFFE00009FFFD0004FFFF50
00DFFF90004FFFFB000AFFFD00
02FFFF4000DFFFF7001FFFF600
06FFFD0007FFFFF4007FFFE100
09FFF9002EFFFFF100DFFF8000
0DFFF500BFFFFFD007FFFF2000
1FFFF108FFFFFFD03EFFFA0000
4FFFE09FFFFFFFF5EFFFF30000
6FFFDBFFFFFBFFFFFFFFA00000
2FFFFFFFFFA09FFFFFFE200000
0AFFFFFFF8001EFFFFF6000000
02EFFFFE500007FFFFA0000000
002AFD71000000BFF900000000
00000000000000042000000000
ENDCHAR
STARTCHAR x
ENCODING 120
SWIDTH 506 0
DWIDTH 14 0
BBX 17 18 -1 -1
BITMAP
000630000000001100
001FFB10000006EE10
002FFFD20002BFFF90
003FFFFC105EFFFFC0
000CFFFFA9FFFFFF40
0003EFFFFFFFFFA200
00004FFFFFFFE50000
00000AFFFFFC200000
00003EFFFFC1000000
0003EFFFFFF3000000
002EFFFFFFFB000000
01DFFFFCFFFF700000
0AFFFFA07FFFF40000
2FFFF9000CFFFA0000
5FFFB00004FFFE0000
6FFE100000CFFC0000
2EFB0000004EF40000
05B200000001300000
ENDCHAR
STARTCHAR y
ENCODING 121
SWIDTH 400 0
DWIDTH 11 0
BBX 14 18 1 -1
BITMAP
3C60000004CC10
7FFC10004FFFD1
5FFF5004EFFFF3
3FFF801EFFFF80
2FFFB0AFFFF800
0EFFE6FFFFA000
0BFFFFFFFB1000
07FFFFFFE20000
01EFFFFF700000
006FFFFD000000
006FFFF4000000
01EFFFA0000000
07FFFE20000000
1EFFF800000000
7FFFE100000000
CFFF6000000000
8FFD0000000000
09D40000000000
ENDCHAR
STARTCHAR z
ENCODING 122
SWIDTH 547 0
DWIDTH 15 0
BBX 18 19 -1 -2
BITMAP
000026898667767400
00009FFFFFFFFFFF60
00008FFFFFFFFFFFF1
00003FFFFFFFFFFFF1
0000058754AFFFFF90
0000000007FFFFF800
00000001AFFFFE3000
0000005DFFFFE30000
00001AFFFFFE300000
0003DFFFFFB1000000
018FFFFFE600000000
08FFFFFB2000000000
0EFFFF800025BE5000
3FFFFB258DFFFFD700
4FFFFFFFFFFFFFF500
1EFFFFFFFFFFFB3000
05FFFFFFFEC7200000
006BFFC94100000000
000010000000000000
ENDCHAR
STARTCHAR braceleft
ENCODING 123
SWIDTH 448 0
DWIDTH 13 0
BBX 23 31 0 -5
BITMAP
000000000000112334200000
0000000069AEFFFFFFFFB200
00000001EFFFFFFFFFFFFC20
00000000DFFFFFFFFFFFFF50
00000000EFFFFFEEEDCA8400
00000002FFFE310000000000
00000005FFFB000000000000
00000008FFF8000000000000
0000000CFFF4000000000000
0000001FFFF1000000000000
0000007FFFC0000000000000
00004DFFFF90000000000000
046DFFFFFF50000000000000
3FFFFFFFC500000000000000
6FFFFFD50000000000000000
3FFFFF910000000000000000
08FFFFFE6000000000000000
008FFFFFF200000000000000
0004EFFFE000000000000000
0000CFFF9000000000000000
0001FFFF4000000000000000
0006FFFE0000000000000000
000BFFFA0000000000000000
001FFFF60000000000000000
005FFFF10000000000000000
009FFFC13344400000000000
00DFFFFFFFFFF90000000000
04FFFFFFFFFFFF8000000000
01FFFFFFFFFFFF5000000000
00BFFFFCBBA7730000000000
002863000000000000000000
ENDCHAR
STARTCHAR bar
ENCODING 124
SWIDTH 332 0
DWIDTH 9 0
BBX 10 22 0 -1
BITMAP
0000001700
0000008F70
000001EFD0
000006FFF2
00000BFFF2
00001FFFC0
00006FFF60
00009FFE10
0000EFF900
0005FFF400
000AFFD000
001FFF8000
004FFF5000
009FFE0000
01EFFB0000
06FFF60000
0DFFE10000
6FFF700000
CFFF300000
EFFD000000
AFF7000000
0540000000
ENDCHAR
STARTCHAR braceright
ENCODING 125
SWIDTH 481 0
DWIDTH 13 0
BBX 22 31 -9 -5
BITMAP
0000000000134456531000
00000003ACEFFFFFFFE400
00000007FFFFFFFFFFFE20
00000005FFFFFFFFFFFF40
00000001EFFFDCDDFFFF10
0000000048410005FFFC00
0000000000000008FFF900
000000000000000BFFF500
000000000000001FFFF200
000000000000005FFFD000
000000000000009FFFA000
00000000000000EFFF6000
00000000000003FFFF5000
00000000000008FFFFF800
00000000000006EFFFFFA1
000000000000002AFFFFF8
0000000000000003DFFFFD
00000000000003AFFFFFFC
0000000000009FFFFFFCB3
000000000001FFFFFD7000
000000000005FFFF810000
000000000009FFFC000000
00000000000EFFF8000000
00000000003FFFF3000000
00000000008FFFD0000000
0000001244DFFF90000000
058ACEFFFFFFFF40000000
1FFFFFFFFFFFFE00000000
0DFFFFFFFFFFF700000000
08FFFFDBBA774000000000
0187410000000000000000
ENDCHAR
STARTCHAR asciitilde
ENCODING 126
SWIDTH 581 0
DWIDTH 16 0
BBX 16 7 0 5
BITMAP
0000021000000000
003BFFFD4002BDE4
03FFFFFFF61CFFE1
1DFFFEFFFFEFFF50
9FFF42DFFFFFF900
CEC6001AFFFD7000
0000000001100000
ENDCHAR
STARTCHAR uni00A0
ENCODING 160
SWIDTH 370 0
DWIDTH 10 0
BBX 1 1 0 0
BITMAP
00
ENDCHAR
STARTCHAR exclamdown
ENCODING 161
SWIDTH 260 0
DWIDTH 7 0
BBX 9 22 -1 -1
BITMAP
00001A9100
0002EFFA00
0005FFFE10
000AFFFE10
0004CFF400
0000013000
0000000000
0005940000
002FFF4000
008FFF5000
00CFFF3000
01FFFF2000
03FFFE0000
05FFFC0000
08FFF60000
0BFFF20000
0EFFF10000
2FFFD10000
1FFFA00000
3FFF400000
09FD100000
0292000000
ENDCHAR
STARTCHAR cent
ENCODING 162
SWIDTH 488 0
DWIDTH 14 0
BBX 13 22 0 -1
BITMAP
00000000320000
00000001ED0000
00000007FF4000
0000000CFFA000
0000002FFFFC20
0000019FFFFFE0
00007EFFFFFFE0
002BFFFFFFFC30
02DFFFFFB61000
0CFFFFD6000000
7FFFF800000000
AFFF5000000000
9FF90000000000
7FFA0000000000
2FFFDA86655200
08FFFFFFFFFD10
007FFFFFFFFF60
000AFFFFFEE700
002FFFD1100000
005FFF80000000
002FFF40000000
00028300000000
ENDCHAR
STARTCHAR sterling
ENCODING 163
SWIDTH 586 0
DWIDTH 16 0
BBX 18 17 -1 2
BITMAP
000000000002000000
000000004BEFFC9A30
00000006FFFFFFFFD0
0000005FFFFFFFFFF3
000000CFFFE889EFF1
000003FFFE10000320
000009FFF920000000
029ADFFFFFFFD30000
06FFFFFFFFFFFE3000
04FFFFFFFFFFFE3000
00CFFFFF7765300000
0002DFFD0000000000
0001FFFA00028A4000
08ABFFFDBCEFFFF100
4FFFFFFFFFFFFFF500
0BFFFFFFFFFFFFD300
01CDFFFDCBB9641000
ENDCHAR
STARTCHAR currency
ENCODING 164
SWIDTH 509 0
DWIDTH 14 0
BBX 14 15 0 0
BITMAP
00AD502BC206B1
00CFF9EFFDCFF9
00DFFFFFFFFFFC
006FFFFFFFFFD3
005FFFFFFFF800
02EFFFCBFFF500
09FFFB01EFFA00
0EFFE127FFFE00
1FFFFFFFFFFE00
0FFFFFFFFFF700
5FFFFFFFFFF100
9FFEDEC9FFF600
AFF20000AFF500
4FC000002CA000
04100000000000
ENDCHAR
STARTCHAR yen
ENCODING 165
SWIDTH 563 0
DWIDTH 16 0
BBX 16 19 0 -1
BITMAP
0002610000002960
000AFE500003EFF7
000AFFE0003EFFFE
0007FFF302EFFFF9
0006FFF60AFFFF90
0004FFFA6FFFFA00
0001FFFEFFFFB100
0000CFFFFFFE2000
0135BFFFFFFC6100
8FFFFFFFFFFFFC20
7FFFFFFFFFFFFFC0
3FFFFFFFFFFEC930
06B8CFFFE2000000
0001EFFF60000000
0008FFFE10000000
000EFFF500000000
000EFFD000000000
0004EF4000000000
0000120000000000
ENDCHAR
STARTCHAR brokenbar
ENCODING 166
SWIDTH 301 0
DWIDTH 8 0
BBX 10 22 -1 -1
BITMAP
0000000350
0000001EE1
0000006FF7
000000CFFB
000001FFFB
000006FFF6
00000DFFE0
00003FFF90
00006FFF30
00003FFC00
0000026100
0000000000
0002200000
001DFA0000
007FFF4000
00DFFF1000
04FFF90000
0CFFF30000
3FFFC00000
6FFF700000
3EFD200000
0161000000
ENDCHAR
STARTCHAR section
ENCODING 167
SWIDTH 630 0
DWIDTH 18 0
BBX 18 25 0 -3
BITMAP
0000000259BDFFF910
000049DFFFFFFFFFA0
002DFFFFFFFFFFFFF4
006FFFFFFFFFFFFFD0
008FFFFFEB86448810
009FFFFF5000000000
005FFFFFFB50000000
000BFFFFFFFD700000
0004FFFFFFFFFC3000
007FFFFFFFFFFFE200
04FFFFFFFFFFFFFD10
0BFFFFD85329FFFF50
0DFFFA000016EFFF90
09FFFFC7ABFFFFFF40
01DFFFFFFFFFFFFA00
002EFFFFFFFFFFA000
0001AFFFFFFFFC1000
000003AFFFFFFFA000
000000028FFFFFF200
0010000039FFFFF400
19FCAACFFFFFFFF200
6FFFFFFFFFFFFFF000
7FFFFFFFFFFFFC4000
0BFFFFFFFEA6200000
006A99752000000000
ENDCHAR
STARTCHAR dieresis
ENCODING 168
SWIDTH 754 0
DWIDTH 21 0
BBX 13 6 6 15
BITMAP
01530000454000
5FFE3002FFFA00
9FFFD003FFFF40
BFFFB004FFFE10
5EFA10005DB200
01000000000000
ENDCHAR
STARTCHAR copyright
ENCODING 169
SWIDTH 614 0
DWIDTH 17 0
BBX 18 19 0 2
BITMAP
000000000241000000
00000059AFFE600000
00001AFFFFFDFC2000
0000CFFFB6105FE300
000BFFC4001729FE00
007FFD1028EFD3FF50
01FFF308FFFFD0CFA0
08FF81BFFFA7109FE0
0EFE19FFA300007FF0
3FF91FF60000007FF1
6FF42FA00000009FF0
6FF61FE8410001EFB0
4FF90AFFFFE20AFF50
1EFC008EFFF49FFB00
06FF40003437FFC100
00AFE62027EFFC1000
0008EFFFFFFFA10000
000018DEFE92000000
000000001000000000
ENDCHAR
STARTCHAR ordfeminine
ENCODING 170
SWIDTH 454 0
DWIDTH 13 0
BBX 13 13 0 5
BITMAP
0000009D820000
000017FFFB0000
0005FFFFFD0000
001EFFFFFF1000
007FFFFFFF4000
00EFFFBFFFB300
07FFFF9FFFFF50
1EFFFFFFFFFF60
6FFFFFFFFFF800
DFFF8CCFFFF700
DFFD003FFFF300
6FE50009FE6000
01100000310000
ENDCHAR
STARTCHAR guillemotleft
ENCODING 171
SWIDTH 566 0
DWIDTH 16 0
BBX 16 13 -1 -1
BITMAP
0000001BB00002C9
000001CFF2002DFF
00002CFFF203DFFE
0006EFFF617FFFF5
05BFFFF76CFFFF50
3FFFFE45FFFFD300
3FFFB106FFFA1000
0EFFD302FFFC2000
05FFFF607FFFE400
006FFFF308FFFE10
0004EFF9005FFF70
000029FE0002AFC0
0000003600000450
ENDCHAR
STARTCHAR logicalnot
ENCODING 172
SWIDTH 698 0
DWIDTH 20 0
BBX 18 11 0 -1
BITMAP
000145666777653000
8EFFFFFFFFFFFFFE30
BFFFFFFFFFFFFFFFF5
8FFFFFFFFFFFFFFFF7
0AEC976544433CFFF3
0000000000002FFFC0
000000000000AFFF60
000000000000FFFD10
000000000001FFFA00
0000000000008FD200
000000000000021000
ENDCHAR
STARTCHAR sfthyphen
ENCODING 173
SWIDTH 608 0
DWIDTH 17 0
BBX 16 5 0 5
BITMAP
0001456677754000
2DFFFFFFFFFFFD10
4FFFFFFFFFFFFFE1
1EFFFFFFFFFFFD90
06DC975444321000
ENDCHAR
STARTCHAR registered
ENCODING 174
SWIDTH 624 0
DWIDTH 17 0
BBX 18 18 0 3
BITMAP
000000000142000000
000000389FFF910000
000007FFFFFDFE5000
00008FFFD7202EF600
0008FFE602CA05FF30
003FFF302EFFA0DF90
00CFF703CFFFF28FE0
04FFC05FFB2EF65FF3
0AFF40AFE59FF62FF4
0EFD01EFFFFFB13FF5
2FF804FFFEA4005FF4
2FFA08FFFC2000BFE1
1FFD0CFDFFFC88FFA0
0AFF2AF25DFFFFFE20
02FF8230004DFFE300
006FF73015CFFE3000
0005DFFFFFFFC20000
000007CEFEB4000000
ENDCHAR
STARTCHAR macron
ENCODING 175
SWIDTH 754 0
DWIDTH 21 0
BBX 11 5 7 16
BITMAP
15678AA98200
8FFFFFFFFC00
AFFFFFFFFF10
9FFFEEEED500
354100100000
ENDCHAR
STARTCHAR degree
ENCODING 176
SWIDTH 284 0
DWIDTH 8 0
BBX 9 9 2 14
BITMAP
00002A6000
0003DFF200
004EFFF200
04FFFFFA00
1EFF9EFF30
6FFC4DFF70
9FFFFFFF80
7FFFFFFB10
08DEDA4000
ENDCHAR
STARTCHAR plusminus
ENCODING 177
SWIDTH 559 0
DWIDTH 16 0
BBX 17 21 -1 -1
BITMAP
000000000040000000
000000001CF6000000
000000008FFE200000
00000000DFFF200000
00000002FFFF200000
00000007FFFF200000
002679CEFFFFDC9300
00BFFFFFFFFFFFFD40
009FFFFFFFFFFFFF90
003FFFFFFFFCB98400
0004639FFFE0000000
000000BFFFB0000000
000000DFFF70000000
000000EFFF20000000
0000006DE700000000
000000000000000000
2568BBCCDDCB820000
AFFFFFFFFFFFFD3000
8FFFFFFFFFFFFFA000
3FFFFFEDDDCB961000
048520000000000000
ENDCHAR
STARTCHAR twosuperior
ENCODING 178
SWIDTH 386 0
DWIDTH 11 0
BBX 11 11 2 9
BITMAP
4ADEDB600000
DFFFFFFA1000
CFFFFFFF7000
399CFFFF8000
00AFFFFC1000
0BFFFF910000
9FFFFA8AD500
FFFFFFFFFE10
EFFFFFFFFE10
7FFFFDA85100
013200000000
ENDCHAR
STARTCHAR threesuperior
ENCODING 179
SWIDTH 366 0
DWIDTH 10 0
BBX 10 11 2 9
BITMAP
169BDEE600
CFFFFFFF50
FFFFFFFFA0
AFFFFFFE30
02FFFFF700
00BFFFFF40
0016CFFFD0
04FFFFFFF1
07FFFFFF90
05FFFFC600
0023210000
ENDCHAR
STARTCHAR acute
ENCODING 180
SWIDTH 754 0
DWIDTH 21 0
BBX 9 9 8 12
BITMAP
000006B100
00008FFB00
000AFFFF30
00AFFFFF40
09FFFFE400
7FFFFD2000
BFFFB10000
9FF8000000
1830000000
ENDCHAR
STARTCHAR mu
ENCODING 181
SWIDTH 569 0
DWIDTH 16 0
BBX 17 18 -1 -3
BITMAP
00000000000001E500
00004000000004FE00
0009F400000009FF30
000CFE1000000CFF80
000FFF6000001FFF90
002FFF9000006FFF50
005FFF500001DFFF20
009FFF300009FFFA00
00DFFF20008FFFF300
02FFFF403BFFFF9000
03FFFFCDFFFFF81000
06FFFFFFFFFFB00000
0CFFFFFFFFFC100000
0EFFFFFFFF91000000
1FFFDDEE9200000000
3FFF60000000000000
4FFF10000000000000
1AE700000000000000
ENDCHAR
STARTCHAR paragraph
ENCODING 182
SWIDTH 729 0
DWIDTH 20 0
BBX 22 23 1 -1
BITMAP
0000000000000000200000
00000000001467ACFE9100
00000059CDFFFFFFFFFE20
00029EFFFFFFFFFFFFFFE2
019FFFFFFFFFFFFFFFFFD1
0CFFFFFFFFFFFCCFFFC610
3FFFFFFFCFFFE07FFF5000
4FFFFF933FFFB0AFFF1000
3FFFF7007FFF70EFFC0000
0EFFF800BFFF43FFF90000
07FFFFC6EFFF17FFF70000
00AFFFFFFFFE18FFF40000
0005EFFFFFFFFFFFF10000
000029EFFFFFFFFFF50000
0000000EFFFFFFFFFF2000
0000003FFFC7DFFFC71000
0000005FFFC0EFFF100000
0000006FFF72FFFC000000
0000006FFF33FFFD000000
000000CFFE01FFFF300000
000002FFFC00CFFF900000
000002FFF6005FFF800000
00000026700006A7200000
ENDCHAR
STARTCHAR periodcentered
ENCODING 183
SWIDTH 226 0
DWIDTH 6 0
BBX 5 5 1 8
BITMAP
138400
6FFE40
AFFFE0
BFFF90
4DC700
ENDCHAR
STARTCHAR cedilla
ENCODING 184
SWIDTH 754 0
DWIDTH 21 0
BBX 11 11 7 -9
BITMAP
000066100000
0009FFA00000
007FFE100000
00CFFE610000
00BFFFFD3000
0019DFFFE300
000002AFFC00
144458EFFF10
8FFFFFFFF900
2DFFFFFE8000
026786400000
ENDCHAR
STARTCHAR onesuperior
ENCODING 185
SWIDTH 206 0
DWIDTH 6 0
BBX 6 11 1 9
BITMAP
02DA10
05FFB0
04FFF2
00FFF4
01FFF5
06FFF2
0BFFD0
2FFF80
3FFF20
1DFC00
013100
ENDCHAR
STARTCHAR ordmasculine
ENCODING 186
SWIDTH 445 0
DWIDTH 12 0
BBX 13 14 0 5
BITMAP
00000003200000
0000008FF50000
00001AFFFF3000
0002DFFFFF4000
002EFFFFFF7000
01DFFFFFFFE000
09FFFFBCFFF700
2FFFF903FFFC00
8FFFC016FFFF10
BFFFEDFFFFFF20
AFFFFFFFFFFC00
3FFFFFFFFFC100
06EFFFFFA50000
00156630000000
ENDCHAR
STARTCHAR guillemotright
ENCODING 187
SWIDTH 595 0
DWIDTH 17 0
BBX 16 13 -1 -1
BITMAP
03E500002E700000
04FFC3002FFD4000
00CFFE500AFFF700
005FFFF603FFFF80
0005EFFF404EFFF6
00002EFFB001DFFD
0001BFFFD019FFFF
004EFFFF92DFFFFB
05FFFFB23EFFFC20
3FFFE602EFFF8000
8FFD2006FFE40000
7FD20005FE300000
0820000073000000
ENDCHAR
STARTCHAR onequarter
ENCODING 188
SWIDTH 705 0
DWIDTH 20 0
BBX 19 22 0 -1
BITMAP
00000000000001710000
004E700000001CF50000
009FF8000000CFF60000
008FFD000008FFF60000
004FFF00005FFFF30000
005FFF1002FFFF800000
00AFFE000BFFFA000000
01EFF9009FFFB0000000
05FFF406FFFD10000000
06FFD04FFFE200010000
03FF81DFFF50004F8000
00230BFFF98900AFF200
0000AFFFB3FF70DFF500
0008FFFD14FFD0FFF910
007FFFE202FFFFFFFF70
03FFFF4000FFFFFFFF80
0AFFF600008FFFFFD810
0EFFD0000004BFFD0000
1FFFA0000000AFF70000
1FFFB0000000AFFC0000
0CFF400000006FFD0000
01440000000006730000
ENDCHAR
STARTCHAR onehalf
ENCODING 189
SWIDTH 750 0
DWIDTH 21 0
BBX 20 22 0 -1
BITMAP
00000000000001710000
004E700000001CF50000
009FF8000000CFF60000
008FFD000008FFF60000
004FFF00005FFFF30000
005FFF1002FFFF800000
00AFFE000BFFFA000000
01EFF9009FFFB0000000
05FFF406FFFD10000000
06FFD04FFFE200000000
03FF81DFFF5001000000
00230BFFF95DFFFC6000
0000AFFFB0CFFFFFF600
0008FFFD10BFFFFFFE10
007FFFE200277DFFFD10
03FFFF400002CFFFE400
0AFFF600001CFFFC3000
0EFFD00000AFFFFABED0
1FFFA00000EFFFFFFFF7
1FFFB00000DFFFFFFFE4
0CFF4000005DFECA7410
01440000000000000000
ENDCHAR
STARTCHAR threequarters
ENCODING 190
SWIDTH 818 0
DWIDTH 23 0
BBX 20 22 2 -1
BITMAP
00134441000000001200
5EFFFFFE20000004EB00
CFFFFFFF9000004FFE00
EFFFFFFF900003EFFE00
3AFFFFF910003EFFFC00
07FFFFE10002EFFFC100
02CFFFF9001CFFFC1000
3A8CFFFE01CFFFB10000
AFFFFFFC1CFFFA000000
FFFFFFD3CFFF90000000
5AAA840AFFF90001DD10
000000AFFFA5B106FF60
00001BFFF92FF90BFF70
0001BFFF904FFE0EFF91
001CFFF9004FFFFFFFF6
00BFFF90003FFFFFFFF5
06FFFA00001CFFFFFC60
0DFFE00000015FFF7000
3FFF900000003FFE0000
5FFF600000005FFF3000
4FFB000000002FFF2000
03510000000004740000
ENDCHAR
STARTCHAR questiondown
ENCODING 191
SWIDTH 556 0
DWIDTH 16 0
BBX 17 22 -2 -1
BITMAP
000000000000046000
0000000000029FF600
000000000007FFFD10
000000000005FFFF10
000000000003EFFD00
000000000000068300
000000000000000000
000000000019730000
0000000002DFFD0000
000000006DFFF90000
0000005EFFFFF40000
00001BFFFFFF400000
0019FFFFFFD4000000
02DFFFFFFB20000000
0BFFFFFD5000000000
4FFFFFB10000000000
9FFFFF8631116A2000
9FFFFFFFFFFFFFE000
9FFFFFFFFFFFFFF300
7FFFFFFFFFFFFFB000
049DFFFFFFFFFD1000
0000258ACDDC910000
ENDCHAR
STARTCHAR Agrave
ENCODING 192
SWIDTH 702 0
DWIDTH 20 0
BBX 21 31 -1 -1
BITMAP
00000000005B1000000000
0000000004FFD300000000
000000000BFFFE30000000
000000000BFFFFE3000000
00000000019FFFFE300000
000000000007FFFFD20000
0000000000005FFFF40000
00000000000003DFF20000
0000000000000006600000
0000000000010000000000
00000000000BE940000000
00000000007FFFF6000000
0000000006FFFFFA000000
0000001BDFFFFFFC000000
000000AFFFFFFFFE000000
000003FFFFFFFFFF100000
00000BFFFFFFFFFF500000
00004FFFFFE6FFFF800000
00009FFFFF31FFFFB00000
0001FFFFF800CFFFF22000
0008FFFFD1008FFFFFE700
001EFFFFCABDFFFFFFFF90
008FFFFFFFFFFFFFFFFD20
01EFFFFDFFFFFFFFFFA100
06FFFFA7FFFFFFFFFF5000
0DFFFE30ABA733FFFF7000
4FFFFA00000007FFFF8000
7FFFF6000001DFFFFF3000
1FFFF20000002FFFF90000
07FE400000000BFF800000
0010000000000031000000
ENDCHAR
STARTCHAR Aacute
ENCODING 193
SWIDTH 702 0
DWIDTH 20 0
BBX 21 31 -1 -1
BITMAP
000000000000003B300000
00000000000005EFE10000
0000000000006FFFF70000
000000000006FFFFF80000
00000000005FFFFF700000
0000000004EFFFE4000000
0000000007FFFE30000000
0000000005FFB200000000
0000000000740000000000
0000000000010000000000
00000000000BE940000000
00000000007FFFF6000000
0000000006FFFFFA000000
0000001BDFFFFFFC000000
000000AFFFFFFFFE000000
000003FFFFFFFFFF100000
00000BFFFFFFFFFF500000
00004FFFFFE6FFFF800000
00009FFFFF31FFFFB00000
0001FFFFF800CFFFF22000
0008FFFFD1008FFFFFE700
001EFFFFCABDFFFFFFFF90
008FFFFFFFFFFFFFFFFD20
01EFFFFDFFFFFFFFFFA100
06FFFFA7FFFFFFFFFF5000
0DFFFE30ABA733FFFF7000
4FFFFA00000007FFFF8000
7FFFF6000001DFFFFF3000
1FFFF20000002FFFF90000
07FE400000000BFF800000
0010000000000031000000
ENDCHAR
STARTCHAR Acircumflex
ENCODING 194
SWIDTH 702 0
DWIDTH 20 0
BBX 21 30 -1 -1
BITMAP
0000000000006930000000
00000000002CFFF6000000
0000000002DFFFFF800000
000000003DFFFFFFF80000
00000004FFFF93EFFFB000
00000005FFFB004FFFC000
00000000CFA10004EF5000
0000000027000000370000
0000000000010000000000
00000000000BE940000000
00000000007FFFF6000000
0000000006FFFFFA000000
0000001BDFFFFFFC000000
000000AFFFFFFFFE000000
000003FFFFFFFFFF100000
00000BFFFFFFFFFF500000
00004FFFFFE6FFFF800000
00009FFFFF31FFFFB00000
0001FFFFF800CFFFF22000
0008FFFFD1008FFFFFE700
001EFFFFCABDFFFFFFFF90
008FFFFFFFFFFFFFFFFD20
01EFFFFDFFFFFFFFFFA100
06FFFFA7FFFFFFFFFF5000
0DFFFE30ABA733FFFF7000
4FFFFA00000007FFFF8000
7FFFF6000001DFFFFF3000
1FFFF20000002FFFF90000
07FE400000000BFF800000
0010000000000031000000
ENDCHAR
STARTCHAR Atilde
ENCODING 195
SWIDTH 702 0
DWIDTH 20 0
BBX 22 28 -1 -1
BITMAP
00000000004BEDB2007BC3
0000000006FFFFFE38FFF3
000000002FFFFFFFFFFFA0
00000000BFFE7FFFFFFE20
00000001FFF605EFFFD300
0000000033100015540000
0000000000010000000000
00000000000BE940000000
00000000007FFFF6000000
0000000006FFFFFA000000
0000001BDFFFFFFC000000
000000AFFFFFFFFE000000
000003FFFFFFFFFF100000
00000BFFFFFFFFFF500000
00004FFFFFE6FFFF800000
00009FFFFF31FFFFB00000
0001FFFFF800CFFFF22000
0008FFFFD1008FFFFFE700
001EFFFFCABDFFFFFFFF90
008FFFFFFFFFFFFFFFFD20
01EFFFFDFFFFFFFFFFA100
06FFFFA7FFFFFFFFFF5000
0DFFFE30ABA733FFFF7000
4FFFFA00000007FFFF8000
7FFFF6000001DFFFFF3000
1FFFF20000002FFFF90000
07FE400000000BFF800000
0010000000000031000000
ENDCHAR
STARTCHAR Adieresis
ENCODING 196
SWIDTH 702 0
DWIDTH 20 0
BBX 21 28 -1 -1
BITMAP
0000000014600002541000
00000002EFF6000DFFC200
00000005FFFF300EFFF800
00000006FFFE200EFFF400
00000002DFD20003BD4000
0000000000000000000000
0000000000010000000000
00000000000BE940000000
00000000007FFFF6000000
0000000006FFFFFA000000
0000001BDFFFFFFC000000
000000AFFFFFFFFE000000
000003FFFFFFFFFF100000
00000BFFFFFFFFFF500000
00004FFFFFE6FFFF800000
00009FFFFF31FFFFB00000
0001FFFFF800CFFFF22000
0008FFFFD1008FFFFFE700
001EFFFFCABDFFFFFFFF90
008FFFFFFFFFFFFFFFFD20
01EFFFFDFFFFFFFFFFA100
06FFFFA7FFFFFFFFFF5000
0DFFFE30ABA733FFFF7000
4FFFFA00000007FFFF8000
7FFFF6000001DFFFFF3000
1FFFF20000002FFFF90000
07FE400000000BFF800000
0010000000000031000000
ENDCHAR
STARTCHAR Aring
ENCODING 197
SWIDTH 702 0
DWIDTH 20 0
BBX 21 28 -1 -1
BITMAP
000000000000007E300000
0000000000001AFFB00000
000000000001CFFFD00000
00000000000CFFFFF50000
00000000007FFC6FFD0000
0000000000DFF99FFF2000
0000000000FFFFFFFF1000
0000000000BFFFFFE40000
00000000008FFFF9000000
0000000007FFFFFA000000
0000001BDFFFFFFC000000
000000AFFFFFFFFE000000
000003FFFFFFFFFF100000
00000BFFFFFFFFFF500000
00004FFFFFE6FFFF800000
00009FFFFF31FFFFB00000
0001FFFFF800CFFFF22000
0008FFFFD1008FFFFFE700
001EFFFFBABDFFFFFFFF90
008FFFFFFFFFFFFFFFFD20
01EFFFFDFFFFFFFFFFA100
06FFFFA7FFFFFFFFFF5000
0DFFFE30ABA733FFFF7000
4FFFFA00000007FFFF8000
7FFFF6000001DFFFFF3000
1FFFF20000002FFFF90000
07FE400000000BFF800000
0010000000000031000000
ENDCHAR
STARTCHAR AE
ENCODING 198
SWIDTH 1153 0
DWIDTH 32 0
BBX 35 22 -2 -1
BITMAP
000000000000001000000000000000011000
00000000000009EA5000000002479BDFFA00
0000000000007FFFF6000259DFFFFFFFFFD0
000000000008FFFFF805CFFFFFFFFFFFFFD0
000000004CDFFFFFF83FFFFFFFFFFFFFFD30
00000002EFFFFFFFF72FFFFFFFFFFEB85000
0000000BFFFFFFFFF80EFFFFFECA30000000
0000006FFFFFFFFFF90AFFFF800000000000
000002FFFFFE6FFFFA02FFFFB88898000000
000008FFFFF40FFFFB06FFFFFFFFFF900000
00003FFFFF600EFFFE1CFFFFFFFFFFFC0000
0000CFFFF9000CFFFFFFFFFFFFFFFFF60000
0007FFFFF9ACEFFFFFFFFFFFFFFFFA200000
002EFFFFFFFFFFFFFFFFFFE3554420000000
00AFFFFDFFFFFFFFFFFFFF60000000000000
04FFFFC5FFFFFFFFFFFFFD00000026960000
0CFFFE30ABA733FFFFFFFD99ACDEFFFF8000
6FFFF800000019FFFFFFFFFFFFFFFFFFF300
BFFFF2000003FFFFFFFFFFFFFFFFFFFFD100
7FFFB00000008FFFF9EFFFFFFFFFFFFA2000
2DF9100000004FFD504CFFFFFDECA7300000
011000000000022000001232100000000000
ENDCHAR
STARTCHAR Ccedilla
ENCODING 199
SWIDTH 611 0
DWIDTH 17 0
BBX 17 30 0 -9
BITMAP
000000000000010000
000000000017FE8100
0000000006EFFFF900
00000005EFFFFFFF70
000004BFFFFFFFFF70
00008FFFFFFFFFFD10
001AFFFFFFFFFD8100
00BFFFFFFFE8200000
09FFFFFFFB10000000
4FFFFFFC5000000000
BFFFFF900000000000
FFFFF8000000000000
EFFFA0000000000000
DFFF30000000000000
AFFF40000000000000
6FFFD7410000000000
1EFFFFFFEDCCBB5000
07FFFFFFFFFFFFF400
008FFFFFFFFFFFFA00
0003DFFFFFFFFFF500
00000BFFDEFEDC3000
00009FFD0000000000
0001FFF91000000000
0002FFFFF600000000
00007EFFFF80000000
00000148EFF4000000
00000025EFFB000000
00BFFFFFFFF7000000
008FFFFFFF90000000
0008BBC97200000000
ENDCHAR
STARTCHAR Egrave
ENCODING 200
SWIDTH 626 0
DWIDTH 18 0
BBX 19 31 0 -1
BITMAP
00000000A70000000000
00000009FF9100000000
0000001FFFFB10000000
0000002FFFFFB1000000
00000003DFFFFB000000
000000001BFFFF900000
0000000000AFFFD00000
000000000007EFB00000
00000000000027200000
00000000000000011000
000000001479BDFFD200
0000148CFFFFFFFFFE20
003BFFFFFFFFFFFFFF20
00EFFFFFFFFFFFFFE500
00DFFFFFFFFFFC961000
00BFFFFFFDB500000000
006FFFFB100000000000
000DFFFD8889A1000000
002FFFFFFFFFFB100000
009FFFFFFFFFFFF10000
01FFFFFFFFFFFF900000
07FFFFFFFFFFC4000000
1FFFFF54544200000000
8FFFFA00000000000000
BFFFF300000158900000
AFFFEA9ABDEFFFFA1000
7FFFFFFFFFFFFFFF7000
5FFFFFFFFFFFFFFF3000
1CFFFFFFFFFFFFD40000
02AFFFFFEDDA74000000
00002321000000000000
ENDCHAR
STARTCHAR Eacute
ENCODING 201
SWIDTH 626 0
DWIDTH 18 0
BBX 19 31 0 -1
BITMAP
00000000000006B10000
0000000000008FFB0000
00000000000AFFFF3000
0000000000AFFFFF4000
0000000009FFFFE40000
000000007FFFFD200000
00000000BFFFB1000000
000000009FF800000000
00000000183000000000
00000000000000011000
000000001479BDFFD200
0000148CFFFFFFFFFE20
003BFFFFFFFFFFFFFF20
00EFFFFFFFFFFFFFE500
00DFFFFFFFFFFC961000
00BFFFFFFDB500000000
006FFFFB100000000000
000DFFFD8889A1000000
002FFFFFFFFFFB100000
009FFFFFFFFFFFF10000
01FFFFFFFFFFFF900000
07FFFFFFFFFFC4000000
1FFFFF54544200000000
8FFFFA00000000000000
BFFFF300000158900000
AFFFEA9ABDEFFFFA1000
7FFFFFFFFFFFFFFF7000
5FFFFFFFFFFFFFFF3000
1CFFFFFFFFFFFFD40000
02AFFFFFEDDA74000000
00002321000000000000
ENDCHAR
STARTCHAR Ecircumflex
ENCODING 202
SWIDTH 626 0
DWIDTH 18 0
BBX 19 30 0 -1
BITMAP
00000000005A40000000
000000001AFFF8000000
00000001CFFFFFA00000
0000001CFFFFFFFB1000
000002EFFFB2DFFFD000
000002FFFC102EFFE000
000000AFB20002DF8000
00000018100000180000
00000000000000011000
000000001479BDFFD200
0000148CFFFFFFFFFE20
003BFFFFFFFFFFFFFF20
00EFFFFFFFFFFFFFE500
00DFFFFFFFFFFC961000
00BFFFFFFDB500000000
006FFFFB100000000000
000DFFFD8889A1000000
002FFFFFFFFFFB100000
009FFFFFFFFFFFF10000
01FFFFFFFFFFFF900000
07FFFFFFFFFFC4000000
1FFFFF54544200000000
8FFFFA00000000000000
BFFFF300000158900000
AFFFEA9ABDEFFFFA1000
7FFFFFFFFFFFFFFF7000
5FFFFFFFFFFFFFFF3000
1CFFFFFFFFFFFFD40000
02AFFFFFEDDA74000000
00002321000000000000
ENDCHAR
STARTCHAR Edieresis
ENCODING 203
SWIDTH 626 0
DWIDTH 18 0
BBX 19 28 0 -1
BITMAP
00000003700001542000
000000CFF9000AFFE300
000002FFFF600BFFFB00
000003FFFF400CFFF700
000000CFE400029E6000
00000001000000000000
00000000000000011000
000000001479BDFFD200
0000148CFFFFFFFFFE20
003BFFFFFFFFFFFFFF20
00EFFFFFFFFFFFFFE500
00DFFFFFFFFFFC961000
00BFFFFFFDB500000000
006FFFFB100000000000
000DFFFD8889A1000000
002FFFFFFFFFFB100000
009FFFFFFFFFFFF10000
01FFFFFFFFFFFF900000
07FFFFFFFFFFC4000000
1FFFFF54544200000000
8FFFFA00000000000000
BFFFF300000158900000
AFFFEA9ABDEFFFFA1000
7FFFFFFFFFFFFFFF7000
5FFFFFFFFFFFFFFF3000
1CFFFFFFFFFFFFD40000
02AFFFFFEDDA74000000
00002321000000000000
ENDCHAR
STARTCHAR Igrave
ENCODING 204
SWIDTH 515 0
DWIDTH 14 0
BBX 20 32 -1 -1
BITMAP
00000000890000000000
00000007FFB200000000
0000000EFFFD20000000
0000000EFFFFD1000000
00000002CFFFFD100000
000000000AFFFFB00000
00000000008FFFF10000
000000000005EFE00000
00000000000017400000
00000000000000000000
00000000233455431000
00006ABEFFFFFFFFFA00
0000DFFFFFFFFFFFFFA0
0000BFFFFFFFFFFFFFF1
00007FFFFFFFFEEDB830
000019B77FFFF1000000
000000006FFFD0000000
00000000AFFF90000000
00000001EFFF40000000
00000004FFFE00000000
00000009FFFA00000000
0000001EFFF600000000
0000007FFFF200000000
000000CFFFC000000000
000003FFFF6000000000
00000AFFFE1000000000
00146FFFFECA10000000
AEFFFFFFFFFFD2000000
DFFFFFFFFFFFF6000000
AFFFFFFFFFFFB1000000
4FFFC976732200000000
03310000000000000000
ENDCHAR
STARTCHAR Iacute
ENCODING 205
SWIDTH 515 0
DWIDTH 14 0
BBX 20 32 -1 -1
BITMAP
0000000000000002B400
000000000000004DFE20
00000000000005FFFF90
0000000000004FFFFFA0
000000000004FFFFF800
00000000003EFFFF6000
00000000006FFFE40000
00000000003FFC200000
00000000000650000000
00000000000000000000
00000000233455431000
00006ABEFFFFFFFFFA00
0000DFFFFFFFFFFFFFA0
0000BFFFFFFFFFFFFFF1
00007FFFFFFFFEEDB830
000019B77FFFF1000000
000000006FFFD0000000
00000000AFFF90000000
00000001EFFF40000000
00000004FFFE00000000
00000009FFFA00000000
0000001EFFF600000000
0000007FFFF200000000
000000CFFFC000000000
000003FFFF6000000000
00000AFFFE1000000000
00146FFFFECA10000000
AEFFFFFFFFFFD2000000
DFFFFFFFFFFFF6000000
AFFFFFFFFFFFB1000000
4FFFC976732200000000
03310000000000000000
ENDCHAR
STARTCHAR Icircumflex
ENCODING 206
SWIDTH 515 0
DWIDTH 14 0
BBX 20 31 -1 -1
BITMAP
00000000000396000000
00000000007FFFC10000
0000000008FFFFFD2000
000000009FFFFFFFD300
0000000BFFFE3AFFFE40
0000000DFFF400BFFF40
00000005FE40001AFC00
00000000730000007200
00000000000000000000
00000000233455431000
00006ABEFFFFFFFFFA00
0000DFFFFFFFFFFFFFA0
0000BFFFFFFFFFFFFFF1
00007FFFFFFFFEEDB830
000019B77FFFF1000000
000000006FFFD0000000
00000000AFFF90000000
00000001EFFF40000000
00000004FFFE00000000
00000009FFFA00000000
0000001EFFF600000000
0000007FFFF200000000
000000CFFFC000000000
000003FFFF6000000000
00000AFFFE1000000000
00146FFFFECA10000000
AEFFFFFFFFFFD2000000
DFFFFFFFFFFFF6000000
AFFFFFFFFFFFB1000000
4FFFC976732200000000
03310000000000000000
ENDCHAR
STARTCHAR Idieresis
ENCODING 207
SWIDTH 515 0
DWIDTH 14 0
BBX 20 29 -1 -1
BITMAP
00000000153000045400
00000005FFE3002FFFA0
00000009FFFD003FFFF4
0000000BFFFB004FFFE1
00000005EFA10005DB20
00000000100000000000
00000000000000000000
00000000233455431000
00006ABEFFFFFFFFFA00
0000DFFFFFFFFFFFFFA0
0000BFFFFFFFFFFFFFF1
00007FFFFFFFFEEDB830
000019B77FFFF1000000
000000006FFFD0000000
00000000AFFF90000000
00000001EFFF40000000
00000004FFFE00000000
00000009FFFA00000000
0000001EFFF600000000
0000007FFFF200000000
000000CFFFC000000000
000003FFFF6000000000
00000AFFFE1000000000
00146FFFFECA10000000
AEFFFFFFFFFFD2000000
DFFFFFFFFFFFF6000000
AFFFFFFFFFFFB1000000
4FFFC976732200000000
03310000000000000000
ENDCHAR
STARTCHAR Eth
ENCODING 208
SWIDTH 656 0
DWIDTH 18 0
BBX 19 22 -1 -1
BITMAP
00000300000000000000
00002FD7100000000000
00005FFFFA4000000000
00001FFFFFFE60000000
00003EFFFFFFFA100000
00008FFFEFFFFFD30000
00005FFF16BFFFFE5000
00002FFF30029EFFF400
00269FFFC81004FFFD10
3EFFFFFFFFA0004FFF60
4FFFFFFFFFF40009FFB0
3FFFFFFFFFE3002EFFD0
0EFFFFFFB51005EFFFD0
0572AFFF5005CFFFFF70
0000EFFF35AFFFFFFB00
0004FFFFEFFFFFFFB100
0009FFFFFFFFFFF80000
000AFFFFFFFFFC300000
0008FFFFFFFB40000000
0004FFFFF93000000000
0000BFD7100000000000
00000300000000000000
ENDCHAR
STARTCHAR Ntilde
ENCODING 209
SWIDTH 684 0
DWIDTH 19 0
BBX 22 28 -1 0
BITMAP
000000000018CED8003ACA
0000000000CFFFFFB1DFFC
0000000008FFFFFFFFFFF4
000000002FFFBAFFFFFF90
000000007FFD11AFFFF910
0000000014200003552000
0000000000000000000000
0000000100000000230000
0000000AD60000008F6000
0000002FFFA00000CFFC10
0000009FFFF80004FFFF80
000001EFFFFF000AFFFFC0
000008FFFFFE000CFFFF70
00001EFFFFFB000EFFFD10
00007FFFFFF7002FFFF900
0001EFFFFFF1005FFFF700
0007FFFFFFF1009FFFF300
000EFFFFFFF100DFFFF100
006FFFFFFFF005FFFFE000
00DFFFFFFFF11DFFFFD000
06FFFFFFFFF3BFFFFF9000
0DFFFFFFFFFEFFFFFF4000
4FFFFFF4EFFFFFFFFE0000
2FFFFFB07FFFFFFFF60000
1EFFFF200CFFFFFFB00000
08FFFD0001DFFFFD100000
01EFF700002CFFC2000000
004E910000005500000000
ENDCHAR
STARTCHAR Ograve
ENCODING 210
SWIDTH 744 0
DWIDTH 21 0
BBX 20 31 0 -1
BITMAP
000000000003B3000000
00000000001DFE500000
00000000007FFFF60000
00000000008FFFFF6000
000000000007FFFFF500
0000000000004EFFFE40
00000000000003DFFF80
000000000000001BFF60
00000000000000004700
0000000000008A400000
00000000004AFFE20000
0000000004EFFFFD3000
000000005EFFFFFF8000
0000000AFFFFFFFF3000
000000BFFFFFFFFF5000
00002CFFFFFFFFFFB000
0001CFFFFFFFCFFFF400
000AFFFFFE4209FFFB00
006FFFFFC20001EFFF40
02EFFFFC1000007FFFC0
0AFFFFB10000001DFFF1
1FFFFF3000000009FFF6
6FFFF7000000000BFFFB
9FFFE000000003AFFFFC
AFFFC0000015AFFFFFFA
AFFFFC99BDEFFFFFFFF4
6FFFFFFFFFFFFFFFFF70
0CFFFFFFFFFFFFFFE400
02DFFFFFFFFFFFA61000
002AFFFFFFCB72000000
00000224410000000000
ENDCHAR
STARTCHAR Oacute
ENCODING 211
SWIDTH 744 0
DWIDTH 21 0
BBX 20 31 0 -1
BITMAP
00000000000003B30000
0000000000005EFE1000
000000000006FFFF7000
00000000006FFFFF8000
0000000005FFFFF70000
000000004EFFFE400000
000000007FFFE3000000
000000005FFB20000000
00000000074000000000
0000000000008A400000
00000000004AFFE20000
0000000004EFFFFD3000
000000005EFFFFFF8000
0000000AFFFFFFFF3000
000000BFFFFFFFFF5000
00002CFFFFFFFFFFB000
0001CFFFFFFFCFFFF400
000AFFFFFE4209FFFB00
006FFFFFC20001EFFF40
02EFFFFC1000007FFFC0
0AFFFFB10000001DFFF1
1FFFFF3000000009FFF6
6FFFF7000000000BFFFB
9FFFE000000003AFFFFC
AFFFC0000015AFFFFFFA
AFFFFC99BDEFFFFFFFF4
6FFFFFFFFFFFFFFFFF70
0CFFFFFFFFFFFFFFE400
02DFFFFFFFFFFFA61000
002AFFFFFFCB72000000
00000224410000000000
ENDCHAR
STARTCHAR Ocircumflex
ENCODING 212
SWIDTH 744 0
DWIDTH 21 0
BBX 20 30 0 -1
BITMAP
00000000000039600000
000000000008FFFB1000
00000000009FFFFFC100
000000000AFFFFFFFD20
00000000CFFFD2BFFFE3
00000000EFFE301CFFF3
000000007FD30001BFB0
00000000072000000810
0000000000008A400000
00000000004AFFE20000
0000000004EFFFFD3000
000000005EFFFFFF8000
0000000AFFFFFFFF3000
000000BFFFFFFFFF5000
00002CFFFFFFFFFFB000
0001CFFFFFFFCFFFF400
000AFFFFFE4209FFFB00
006FFFFFC20001EFFF40
02EFFFFC1000007FFFC0
0AFFFFB10000001DFFF1
1FFFFF3000000009FFF6
6FFFF7000000000BFFFB
9FFFE000000003AFFFFC
AFFFC0000015AFFFFFFA
AFFFFC99BDEFFFFFFFF4
6FFFFFFFFFFFFFFFFF70
0CFFFFFFFFFFFFFFE400
02DFFFFFFFFFFFA61000
002AFFFFFFCB72000000
00000224410000000000
ENDCHAR
STARTCHAR Otilde
ENCODING 213
SWIDTH 744 0
DWIDTH 21 0
BBX 21 28 0 -1
BITMAP
00000000018CED8003ACA0
000000000CFFFFFB1DFFC0
000000008FFFFFFFFFFF40
00000002FFFBAFFFFFF900
00000007FFD11AFFFF9100
0000000142000035520000
0000000000008A40000000
00000000004AFFE2000000
0000000004EFFFFD300000
000000005EFFFFFF800000
0000000AFFFFFFFF300000
000000BFFFFFFFFF500000
00002CFFFFFFFFFFB00000
0001CFFFFFFFCFFFF40000
000AFFFFFE4209FFFB0000
006FFFFFC20001EFFF4000
02EFFFFC1000007FFFC000
0AFFFFB10000001DFFF100
1FFFFF3000000009FFF600
6FFFF7000000000BFFFB00
9FFFE000000003AFFFFC00
AFFFC0000015AFFFFFFA00
AFFFFC99BDEFFFFFFFF400
6FFFFFFFFFFFFFFFFF7000
0CFFFFFFFFFFFFFFE40000
02DFFFFFFFFFFFA6100000
002AFFFFFFCB7200000000
0000022441000000000000
ENDCHAR
STARTCHAR Odieresis
ENCODING 214
SWIDTH 744 0
DWIDTH 21 0
BBX 20 28 0 -1
BITMAP
00000000036000015410
00000001DFF8000BFFD2
00000003FFFF500CFFF9
00000005FFFE300DFFF6
00000001DFE30002AD50
00000000010000000000
0000000000008A400000
00000000004AFFE20000
0000000004EFFFFD3000
000000005EFFFFFF8000
0000000AFFFFFFFF3000
000000BFFFFFFFFF5000
00002CFFFFFFFFFFB000
0001CFFFFFFFCFFFF400
000AFFFFFE4209FFFB00
006FFFFFC20001EFFF40
02EFFFFC1000007FFFC0
0AFFFFB10000001DFFF1
1FFFFF3000000009FFF6
6FFFF7000000000BFFFB
9FFFE000000003AFFFFC
AFFFC0000015AFFFFFFA
AFFFFC99BDEFFFFFFFF4
6FFFFFFFFFFFFFFFFF70
0CFFFFFFFFFFFFFFE400
02DFFFFFFFFFFFA61000
002AFFFFFFCB72000000
00000224410000000000
ENDCHAR
STARTCHAR multiply
ENCODING 215
SWIDTH 490 0
DWIDTH 14 0
BBX 14 15 0 0
BITMAP
00630000000120
01FF9000007EE1
02FFFA001BFFF8
01EFFF75EFFFF4
006FFFFFFFFD50
0008FFFFFF9000
0001FFFFE50000
001AFFFF900000
00AFFFFFF30000
0AFFFEEFFC0000
5FFFE35FFF9000
BFFE200BFFE000
EFF40003FFF300
DFA00000BFC000
4D400000062000
ENDCHAR
STARTCHAR Oslash
ENCODING 216
SWIDTH 744 0
DWIDTH 21 0
BBX 20 25 0 -4
BITMAP
0000000000008A400172
00000000004AFFE22DF7
0000000004EFFFFDDFFA
000000005EFFFFFFFFFA
0000000AFFFFFFFFFFF9
000000BFFFFFFFFFFFF4
00002CFFFFFFFFFFFF70
0001CFFFFFFFFFFFFA00
000AFFFFFE49FFFFFB00
006FFFFFC25FFFFFFF40
02EFFFFC14FFFFFFFFC0
0AFFFFB11DFFFE4EFFF1
1FFFFF30AFFFF609FFF6
6FFFF708FFFFA00BFFFB
9FFFE07FFFFB03AFFFFC
AFFFB6FFFFE6AFFFFFFA
AFFFFFFFFFFFFFFFFFF4
6FFFFFFFFFFFFFFFFF70
0DFFFFFFFFFFFFFFE400
03EFFFFFFFFFFFA61000
004FFFFFFFCB72000000
005FFFF5410000000000
004FFFF4000000000000
001DFFB0000000000000
00027910000000000000
ENDCHAR
STARTCHAR Ugrave
ENCODING 217
SWIDTH 695 0
DWIDTH 19 0
BBX 20 28 1 0
BITMAP
000001B6000000000000
00000BFF800000000000
00003FFFFA0000000000
00004FFFFFA000000000
000004EFFFF900000000
0000002CFFFF80000000
00000001BFFFC0000000
0000000008FFA0002000
0000000000282007F600
0010000000000009FF20
02C900000000001FFF50
09FF60000000003FFFA0
0CFFE1000000006FFFF0
1FFFF600000000AFFFF2
1FFFFB00000000EFFFD0
5FFFFC00000006FFFFA0
7FFFF70000000DFFFF80
8FFFF40000008FFFFE20
9FFFF3000006FFFFF800
9FFFF300007FFFFFE100
8FFFF5003BFFFFFF7000
8FFFFA7CFFFFFFF60000
6FFFFFFFFFFFFF500000
0BFFFFFFFFFFFA000000
0AFFFFFFFFFFB1000000
03FFFFFFFFF800000000
009FFFFFFB3000000000
00059AB9300000000000
ENDCHAR
STARTCHAR Uacute
ENCODING 218
SWIDTH 695 0
DWIDTH 19 0
BBX 20 29 1 0
BITMAP
00000000000002B40000
0000000000004DFE2000
000000000005FFFF9000
00000000004FFFFFA000
0000000004FFFFF80000
000000003EFFFF600000
000000006FFFE4000000
000000003FFC20000000
00000000065000002000
0000000000000007F600
0010000000000009FF20
02C900000000001FFF50
09FF60000000003FFFA0
0CFFE1000000006FFFF0
1FFFF600000000AFFFF2
1FFFFB00000000EFFFD0
5FFFFC00000006FFFFA0
7FFFF70000000DFFFF80
8FFFF40000008FFFFE20
9FFFF3000006FFFFF800
9FFFF300007FFFFFE100
8FFFF5003BFFFFFF7000
8FFFFA7CFFFFFFF60000
6FFFFFFFFFFFFF500000
0BFFFFFFFFFFFA000000
0AFFFFFFFFFFB1000000
03FFFFFFFFF800000000
009FFFFFFB3000000000
00059AB9300000000000
ENDCHAR
STARTCHAR Ucircumflex
ENCODING 219
SWIDTH 695 0
DWIDTH 19 0
BBX 20 29 1 0
BITMAP
00000000039600000000
000000007FFFC1000000
00000008FFFFFD200000
0000009FFFFFFFD30000
00000BFFFE3AFFFE4000
00000DFFF400BFFF4000
000005FE40001AFC0000
00000073000000720000
00000000000000002000
0000000000000007F600
0010000000000009FF20
02C900000000001FFF50
09FF60000000003FFFA0
0CFFE1000000006FFFF0
1FFFF600000000AFFFF2
1FFFFB00000000EFFFD0
5FFFFC00000006FFFFA0
7FFFF70000000DFFFF80
8FFFF40000008FFFFE20
9FFFF3000006FFFFF800
9FFFF300007FFFFFE100
8FFFF5003BFFFFFF7000
8FFFFA7CFFFFFFF60000
6FFFFFFFFFFFFF500000
0BFFFFFFFFFFFA000000
0AFFFFFFFFFFB1000000
03FFFFFFFFF800000000
009FFFFFFB3000000000
00059AB9300000000000
ENDCHAR
STARTCHAR Udieresis
ENCODING 220
SWIDTH 695 0
DWIDTH 19 0
BBX 20 27 1 0
BITMAP
00000027100005430000
000009FFC1006FFF6000
00000DFFFA007FFFE000
00000EFFF8008FFFB000
000008FF700017E91000
00000010000000000000
00000000000000002000
0000000000000007F600
0010000000000009FF20
02C900000000001FFF50
09FF60000000003FFFA0
0CFFE1000000006FFFF0
1FFFF600000000AFFFF2
1FFFFB00000000EFFFD0
5FFFFC00000006FFFFA0
7FFFF70000000DFFFF80
8FFFF40000008FFFFE20
9FFFF3000006FFFFF800
9FFFF300007FFFFFE100
8FFFF5003BFFFFFF7000
8FFFFA7CFFFFFFF60000
6FFFFFFFFFFFFF500000
0BFFFFFFFFFFFA000000
0AFFFFFFFFFFB1000000
03FFFFFFFFF800000000
009FFFFFFB3000000000
00059AB9300000000000
ENDCHAR
STARTCHAR Yacute
ENCODING 221
SWIDTH 493 0
DWIDTH 14 0
BBX 16 32 1 -1
BITMAP
0000000000009800
00000000002BFF70
0000000001DFFFE0
000000001CFFFFF1
00000001CFFFFC20
0000000BFFFFA000
0000001EFFF80000
0000000DFE500000
0000000371000000
0000000000000000
0520000000005800
4FE81000002CFF91
6FFFC00001CFFFFB
3FFFF2001BFFFFFC
1FFFF6009FFFFFE3
1FFFF803FFFFFE20
0DFFFC1DFFFFE400
0AFFFEBFFFFF6000
07FFFFFFFFF70000
02FFFFFFFFC00000
00BFFFFFFF300000
003FFFFFF9000000
000AFFFFE2000000
003FFFFF60000000
00BFFFFB00000000
04FFFFF300000000
0BFFFF9000000000
4FFFFF3000000000
AFFFF70000000000
BFFFE10000000000
5FFF800000000000
05BA000000000000
ENDCHAR
STARTCHAR Thorn
ENCODING 222
SWIDTH 680 0
DWIDTH 19 0
BBX 20 22 0 -1
BITMAP
00000310000000000000
0000AF60000000000000
0007FFA0000000000000
000CFFF4000000000000
003FFFFB987642000000
007FFFFFFFFFFFE92000
009FFFFFFFFFFFFFF600
00CFFFFFFFFFFFFFFF40
01FFFFF766678FFFFFC0
05FFFFD000000CFFFFF1
09FFFF9000009FFFFFF3
0DFFFF60005DFFFFFFC0
0EFFFF316DFFFFFFFB10
0FFFFFCFFFFFFFFE8000
1FFFFFFFFFFFFFA20000
3FFFFFFFFFFC61000000
2FFFFFFFD73000000000
0DFFFE83000000000000
09FFFC00000000000000
04FFFC00000000000000
00DFE500000000000000
00130000000000000000
ENDCHAR
STARTCHAR germandbls
ENCODING 223
SWIDTH 931 0
DWIDTH 26 0
BBX 30 18 0 -1
BITMAP
0000000158ACDB500000048ACDB600
000005BFFFFFFFE2005AEFFFFFFF30
0039EFFFFFFFFFFB9EFFFFFFFFFFB0
09FFFFFFFFFFFFFFFFFFFFFFFFFFF2
6FFFFFFD854649FFFFFFD964654530
9FFFFFE5000008FFFFFF6100000000
9FFFFFFFC40008FFFFFFFD50000000
3EFFFFFFFF1002DFFFFFFFF2000000
0159ACEFFF9000159ACEFFFA000000
00000006CFF4000000005BFF500000
000000004FF90000000003FFB00000
00000002EFF9000000002DFFA00000
0000029FFFF500000018EFFF700000
0256BFFFFFC000156AFFFFFD100000
09FFFFFFFC10008FFFFFFFD2000000
09FFFFFF9100008FFFFFFA10000000
06FFFEA30000005FFFFA3000000000
006741000000000674100000000000
ENDCHAR
STARTCHAR agrave
ENCODING 224
SWIDTH 581 0
DWIDTH 16 0
BBX 18 27 -1 -1
BITMAP
000000005B20000000
00000003EFD4000000
0000000AFFFF400000
0000000BFFFFE40000
000000019FFFFE3000
0000000006FFFFE200
00000000005EFFF500
000000000003CFF300
000000000000056000
000000000472000000
000000002EFFB00000
00000002CFFFF10000
000003CEFFFFF30000
00000CFFFFFFF50000
00005FFFFFFFF90000
0000DFFFFAFFFC0000
0004FFFF90EFFF0000
000BFFFD10BFFF7400
003FFFF513AFFFFF91
00AFFFFFFFFFFFFFE1
03FFFFEFFFFFFFFC30
09FFFAAFFFFFFFF500
1FFFF2299736FFF700
6FFFB000005CFFF700
5FFF7000008FFFE100
1CFB1000001EFE4000
014100000001510000
ENDCHAR
STARTCHAR aacute
ENCODING 225
SWIDTH 581 0
DWIDTH 16 0
BBX 18 28 -1 -1
BITMAP
0000000000005B1000
000000000008FFB000
00000000009FFFF400
0000000009FFFFF500
000000008FFFFE5000
00000007FFFFD20000
0000000BFFFC100000
00000008FF91000000
000000018300000000
000000000000000000
000000000472000000
000000002EFFB00000
00000002CFFFF10000
000003CEFFFFF30000
00000CFFFFFFF50000
00005FFFFFFFF90000
0000DFFFFAFFFC0000
0004FFFF90EFFF0000
000BFFFD10BFFF7400
003FFFF513AFFFFF91
00AFFFFFFFFFFFFFE1
03FFFFEFFFFFFFFC30
09FFFAAFFFFFFFF500
1FFFF2299736FFF700
6FFFB000005CFFF700
5FFF7000008FFFE100
1CFB1000001EFE4000
014100000001510000
ENDCHAR
STARTCHAR acircumflex
ENCODING 226
SWIDTH 581 0
DWIDTH 16 0
BBX 18 26 -1 -1
BITMAP
000000000188100000
000000003DFFE40000
00000004EFFFFF5000
0000005FFFFFFFF600
000007FFFF65FFFF80
000008FFF8007FFF90
000002EF700006FE20
000000450000005500
000000000472000000
000000002EFFB00000
00000002CFFFF10000
000003CEFFFFF30000
00000CFFFFFFF50000
00005FFFFFFFF90000
0000DFFFFAFFFC0000
0004FFFF90EFFF0000
000BFFFD10BFFF7400
003FFFF513AFFFFF91
00AFFFFFFFFFFFFFE1
03FFFFEFFFFFFFFC30
09FFFAAFFFFFFFF500
1FFFF2299736FFF700
6FFFB000005CFFF700
5FFF7000008FFFE100
1CFB1000001EFE4000
014100000001510000
ENDCHAR
STARTCHAR atilde
ENCODING 227
SWIDTH 581 0
DWIDTH 16 0
BBX 19 25 -1 -1
BITMAP
00000002ADEC4005BC60
0000003EFFFFF64FFF70
000000DFFFFFFFFFFD10
000007FFF8DFFFFFF400
00000CFF903DFFFE6000
00000232000045410000
00000000000000000000
00000000047200000000
000000002EFFB0000000
00000002CFFFF1000000
000003CEFFFFF3000000
00000CFFFFFFF5000000
00005FFFFFFFF9000000
0000DFFFFAFFFC000000
0004FFFF90EFFF000000
000BFFFD10BFFF740000
003FFFF513AFFFFF9100
00AFFFFFFFFFFFFFE100
03FFFFEFFFFFFFFC3000
09FFFAAFFFFFFFF50000
1FFFF2299736FFF70000
6FFFB000005CFFF70000
5FFF7000008FFFE10000
1CFB1000001EFE400000
01410000000151000000
ENDCHAR
STARTCHAR adieresis
ENCODING 228
SWIDTH 581 0
DWIDTH 16 0
BBX 18 25 -1 -1
BITMAP
000000027000015430
000000AFFB0008FFF5
000000EFFF8008FFFD
000001FFFF6009FFF9
000000AFF500018E81
000000010000000000
000000000000000000
000000000472000000
000000002EFFB00000
00000002CFFFF10000
000003CEFFFFF30000
00000CFFFFFFF50000
00005FFFFFFFF90000
0000DFFFFAFFFC0000
0004FFFF90EFFF0000
000BFFFD10BFFF7400
003FFFF513AFFFFF91
00AFFFFFFFFFFFFFE1
03FFFFEFFFFFFFFC30
09FFFAAFFFFFFFF500
1FFFF2299736FFF700
6FFFB000005CFFF700
5FFF7000008FFFE100
1CFB1000001EFE4000
014100000001510000
ENDCHAR
STARTCHAR aring
ENCODING 229
SWIDTH 581 0
DWIDTH 16 0
BBX 18 25 -1 -1
BITMAP
000000000000010000
000000000001BE2000
00000000003DFF7000
0000000004EFFFA000
000000002EFFFFF200
00000000BFF98FF900
00000002FFF8CFFD00
00000004FFFFFFFC00
00000001DFFFFFB100
00000001CFFFF30000
000003CEFFFFF30000
00000CFFFFFFF50000
00005FFFFFFFF90000
0000DFFFFAFFFC0000
0004FFFF90EFFF0000
000BFFFD10BFFF7400
003FFFF513AFFFFF91
00AFFFFFFFFFFFFFE1
03FFFFEFFFFFFFFC30
09FFFAAFFFFFFFF500
1FFFF2299736FFF700
6FFFB000005CFFF700
5FFF7000008FFFE100
1CFB1000001EFE4000
014100000001510000
ENDCHAR
STARTCHAR ae
ENCODING 230
SWIDTH 948 0
DWIDTH 27 0
BBX 30 18 -2 -1
BITMAP
000000000006620000000013579800
00000000005FFF6000159DFFFFFFC2
0000000006FFFFA06DFFFFFFFFFFF2
0000000BEFFFFFA4FFFFFFFFFFFE50
0000009FFFFFFF93FFFFFFFD963000
000004FFFFFFFFA0EFFFB640000000
00001DFFFFAFFFB07FFF9556600000
00006FFFF72FFFD09FFFFFFFF70000
0002EFFF901FFFF5EFFFFFFFFF8000
000AFFFC124FFFFFFFFFFFFFFB2000
005FFFFFFFFFFFFFFFFBBBB9400000
01DFFFEFFFFFFFFFFFD00000000000
08FFFC8FFFFFFFFFFF500001484000
2EFFE2298637FFFFFFBABDEFFFE500
9FFF8000016DFFFFFFFFFFFFFFFB00
AFFF200001CFFFEFFFFFFFFFFFE300
5FE70000007FFC28FFFFFFFDB71000
032000000004300014543110000000
ENDCHAR
STARTCHAR ccedilla
ENCODING 231
SWIDTH 513 0
DWIDTH 14 0
BBX 14 25 0 -8
BITMAP
00000000018700
000000017EFFC1
0000007EFFFFFB
00005CFFFFFFFA
0008FFFFFFFFD2
00BFFFFFFE9500
09FFFFFF700000
5FFFFFA3000000
DFFFF600000000
FFFF5000000000
EFFA0000000000
CFF80000000000
8FFE7310000000
2FFFFFFEDDCB20
07FFFFFFFFFFD0
006EFFFFFFFFE1
00028FFFFFFD30
0001CFF4321000
0005FFD3000000
0005FFFFB10000
00006CEFFD1000
00000019FF8000
006889BFFFA000
00DFFFFFFD2000
002CEFEB710000
ENDCHAR
STARTCHAR egrave
ENCODING 232
SWIDTH 521 0
DWIDTH 15 0
BBX 16 27 0 -1
BITMAP
00003B3000000000
0001DFE600000000
0007FFFF70000000
0007FFFFF6000000
00006FFFFF600000
000004EFFFF40000
0000003DFFF80000
00000001AFF60000
0000000004700000
0000000002479800
0000148CFFFFFFC2
005CFFFFFFFFFFF3
04FFFFFFFFFFFE60
02FFFFFFFEA74000
00EFFFC641000000
007FFF9455600000
008FFFFFFFF80000
01EFFFFFFFFF9000
07FFFFFFFFFC2000
1DFFFBBBBA500000
6FFFD10000000000
AFFF600000484000
AFFFBABDEFFFE500
7FFFFFFFFFFFFC00
4FFFFFFFFFFFE400
07FFFFFFFEB71000
0014553110000000
ENDCHAR
STARTCHAR eacute
ENCODING 233
SWIDTH 521 0
DWIDTH 15 0
BBX 16 27 0 -1
BITMAP
0000000000099000
0000000001AFF700
000000001CFFFE00
00000001CFFFFF10
0000000CFFFFC200
000000BFFFFA1000
000001EFFF900000
000000DFE6000000
0000003710000000
0000000002479800
0000148CFFFFFFC2
005CFFFFFFFFFFF3
04FFFFFFFFFFFE60
02FFFFFFFEA74000
00EFFFC641000000
007FFF9455600000
008FFFFFFFF80000
01EFFFFFFFFF9000
07FFFFFFFFFC2000
1DFFFBBBBA500000
6FFFD10000000000
AFFF600000484000
AFFFBABDEFFFE500
7FFFFFFFFFFFFC00
4FFFFFFFFFFFE400
07FFFFFFFEB71000
0014553110000000
ENDCHAR
STARTCHAR ecircumflex
ENCODING 234
SWIDTH 521 0
DWIDTH 15 0
BBX 16 26 0 -1
BITMAP
0000000006930000
00000001BFFF7000
0000002DFFFFF900
000002DFFFFFFF90
00003EFFFA2EFFFC
00004FFFB003EFFD
00000BFA10003DF6
0000027000000270
0000000002479800
0000148CFFFFFFC2
005CFFFFFFFFFFF3
04FFFFFFFFFFFE60
02FFFFFFFEA74000
00EFFFC641000000
007FFF9455600000
008FFFFFFFF80000
01EFFFFFFFFF9000
07FFFFFFFFFC2000
1DFFFBBBBA500000
6FFFD10000000000
AFFF600000484000
AFFFBABDEFFFE500
7FFFFFFFFFFFFC00
4FFFFFFFFFFFE400
07FFFFFFFEB71000
0014553110000000
ENDCHAR
STARTCHAR edieresis
ENCODING 235
SWIDTH 521 0
DWIDTH 15 0
BBX 17 25 0 -1
BITMAP
000000270000154300
00000AFFB0008FFF50
00000EFFF8008FFFD0
00001FFFF6009FFF90
00000AFF500018E810
000000100000000000
000000000000000000
000000000247980000
0000148CFFFFFFC200
005CFFFFFFFFFFF300
04FFFFFFFFFFFE6000
02FFFFFFFEA7400000
00EFFFC64100000000
007FFF945560000000
008FFFFFFFF8000000
01EFFFFFFFFF900000
07FFFFFFFFFC200000
1DFFFBBBBA50000000
6FFFD1000000000000
AFFF60000048400000
AFFFBABDEFFFE50000
7FFFFFFFFFFFFC0000
4FFFFFFFFFFFE40000
07FFFFFFFEB7100000
001455311000000000
ENDCHAR
STARTCHAR igrave
ENCODING 236
SWIDTH 320 0
DWIDTH 9 0
BBX 10 28 1 -1
BITMAP
004B200000
02EFE40000
08FFFF5000
09FFFFF500
008FFFFF40
0005FFFFE3
00004EFFF6
000002CFF4
0000000570
0000000000
0002A20000
001EF70000
006FFE1000
00BFFF2000
00FFFF6000
01FFFF4000
05FFFE0000
09FFF90000
0DFFF50000
2FFFF10000
3FFFD00000
4FFFB00000
6FFF900000
5FFF900000
1FFFB00000
0BFFC00000
05FF800000
0053000000
ENDCHAR
STARTCHAR iacute
ENCODING 237
SWIDTH 320 0
DWIDTH 9 0
BBX 14 28 1 -1
BITMAP
00000000002B40
0000000004EFE2
000000005FFFF8
00000005FFFFF9
0000004FFFFF80
000003EFFFF500
000006FFFE4000
000004FFB20000
00000075000000
00000000000000
0002A200000000
001EF700000000
006FFE10000000
00BFFF20000000
00FFFF60000000
01FFFF40000000
05FFFE00000000
09FFF900000000
0DFFF500000000
2FFFF100000000
3FFFD000000000
4FFFB000000000
6FFF9000000000
5FFF9000000000
1FFFB000000000
0BFFC000000000
05FF8000000000
00530000000000
ENDCHAR
STARTCHAR icircumflex
ENCODING 238
SWIDTH 320 0
DWIDTH 9 0
BBX 12 27 1 -1
BITMAP
000018810000
0004EFFD3000
005FFFFFE400
06FFFFFFFE40
8FFFF57FFFF6
AFFF6008FFF7
3EF600007FE2
055000000640
000000000000
0002A2000000
001EF7000000
006FFE100000
00BFFF200000
00FFFF600000
01FFFF400000
05FFFE000000
09FFF9000000
0DFFF5000000
2FFFF1000000
3FFFD0000000
4FFFB0000000
6FFF90000000
5FFF90000000
1FFFB0000000
0BFFC0000000
05FF80000000
005300000000
ENDCHAR
STARTCHAR idieresis
ENCODING 239
SWIDTH 320 0
DWIDTH 9 0
BBX 13 25 0 -1
BITMAP
00271000054300
09FFB1007FFF50
0EFFF9008FFFE0
1FFFF7009FFFA0
09FF600017E810
00100000000000
00000000000000
00002A20000000
0001EF70000000
0006FFE1000000
000BFFF2000000
000FFFF6000000
001FFFF4000000
005FFFE0000000
009FFF90000000
00DFFF50000000
02FFFF10000000
03FFFD00000000
04FFFB00000000
06FFF900000000
05FFF900000000
01FFFB00000000
00BFFC00000000
005FF800000000
00053000000000
ENDCHAR
STARTCHAR eth
ENCODING 240
SWIDTH 541 0
DWIDTH 15 0
BBX 16 18 -1 -1
BITMAP
0000C71000000000
0004FFFA40000000
0001FFFFFD400000
0004FFFFFFF90000
0006FFBCFFFFC100
0003FFA038EFFD10
0036FFE6101CFFB0
7EFFFFFFB001CFF4
9FFFFFFFF4004FF9
7FFFFFFEA102DFFA
2DABFFD0017EFFF7
000BFFA16EFFFFD1
001FFFEEFFFFFD20
005FFFFFFFFF9100
005FFFFFFFC30000
003FFFFFA4000000
000BFE8200000000
0001510000000000
ENDCHAR
STARTCHAR ntilde
ENCODING 241
SWIDTH 564 0
DWIDTH 16 0
BBX 21 25 -1 -1
BITMAP
0000000003ADEB4006BC50
000000004FFFFFF55FFF60
00000001DFFFFFFFFFFC00
00000009FFF7EFFFFFF300
0000000DFF803DFFFE5000
0000000231000155410000
0000000000000000000000
00000064000001B2000000
000001EFA10005FE600000
000008FFFA000BFFF30000
00001EFFFF101FFFF60000
00007FFFFE104FFFF20000
0001EFFFFB006FFF800000
0006FFFFF6009FFF500000
000DFFFFF500DFFF200000
006FFFFFF503FFFF000000
00DFFFFFF50AFFFD000000
05FFFFFFF55FFFFB000000
0CFFFFFFFCFFFFF6000000
4FFFFF6FFFFFFFF2000000
4FFFF90AFFFFFF80000000
0EFFF101EFFFFC00000000
07FFD0003EFFD200000000
00CE500002981000000000
0001000000000000000000
ENDCHAR
STARTCHAR ograve
ENCODING 242
SWIDTH 628 0
DWIDTH 18 0
BBX 17 27 0 -1
BITMAP
000000004B20000000
00000002EFE5000000
00000008FFFF500000
00000009FFFFF50000
000000007FFFFF4000
0000000005FFFFE300
00000000004EFFF600
000000000002BFF400
000000000011057000
0000000003DE400000
000000008FFFE40000
00000009FFFFFD0000
000002DFFFFFF90000
00002DFFFFFFFB0000
0003EFFFFFFFFF3000
001DFFFFB63DFFB000
00BFFFF90005FFF400
06FFFF800000CFFC00
1EFFF80000004FFF10
5FFFD10000001FFF60
9FFF50000001AFFF90
BFFF1000028EFFFF70
AFFFDAACEFFFFFFE20
5FFFFFFFFFFFFFE400
0AFFFFFFFFFFE91000
009FFFFFFEB5000000
000144651000000000
ENDCHAR
STARTCHAR oacute
ENCODING 243
SWIDTH 628 0
DWIDTH 18 0
BBX 17 28 0 -1
BITMAP
000000000001A70000
00000000002CFF5000
0000000002EFFFC000
000000002DFFFFD000
00000001DFFFFB1000
0000001CFFFF900000
0000002FFFF7000000
0000000FFD40000000
000000056100000000
000000000011000000
0000000003DE400000
000000008FFFE40000
00000009FFFFFD0000
000002DFFFFFF90000
00002DFFFFFFFB0000
0003EFFFFFFFFF3000
001DFFFFB63DFFB000
00BFFFF90005FFF400
06FFFF800000CFFC00
1EFFF80000004FFF10
5FFFD10000001FFF60
9FFF50000001AFFF90
BFFF1000028EFFFF70
AFFFDAACEFFFFFFE20
5FFFFFFFFFFFFFE400
0AFFFFFFFFFFE91000
009FFFFFFEB5000000
000144651000000000
ENDCHAR
STARTCHAR ocircumflex
ENCODING 244
SWIDTH 628 0
DWIDTH 18 0
BBX 18 27 0 -1
BITMAP
000000000039600000
0000000007FFFC1000
000000008FFFFFD200
00000009FFFFFFFD30
000000BFFFE3AFFFE4
000000DFFF400BFFF4
0000005FE40001AFC0
000000073000000720
000000000011000000
0000000003DE400000
000000008FFFE40000
00000009FFFFFD0000
000002DFFFFFF90000
00002DFFFFFFFB0000
0003EFFFFFFFFF3000
001DFFFFB63DFFB000
00BFFFF90005FFF400
06FFFF800000CFFC00
1EFFF80000004FFF10
5FFFD10000001FFF60
9FFF50000001AFFF90
BFFF1000028EFFFF70
AFFFDAACEFFFFFFE20
5FFFFFFFFFFFFFE400
0AFFFFFFFFFFE91000
009FFFFFFEB5000000
000144651000000000
ENDCHAR
STARTCHAR otilde
ENCODING 245
SWIDTH 628 0
DWIDTH 18 0
BBX 20 25 0 -1
BITMAP
000000003ADEB4006BC5
00000004FFFFFF55FFF6
0000001DFFFFFFFFFFC0
0000009FFF7EFFFFFF30
000000DFF803DFFFE500
00000023100015541000
00000000001100000000
0000000003DE40000000
000000008FFFE4000000
00000009FFFFFD000000
000002DFFFFFF9000000
00002DFFFFFFFB000000
0003EFFFFFFFFF300000
001DFFFFB63DFFB00000
00BFFFF90005FFF40000
06FFFF800000CFFC0000
1EFFF80000004FFF1000
5FFFD10000001FFF6000
9FFF50000001AFFF9000
BFFF1000028EFFFF7000
AFFFDAACEFFFFFFE2000
5FFFFFFFFFFFFFE40000
0AFFFFFFFFFFE9100000
009FFFFFFEB500000000
00014465100000000000
ENDCHAR
STARTCHAR odieresis
ENCODING 246
SWIDTH 628 0
DWIDTH 18 0
BBX 19 25 0 -1
BITMAP
00000001530000454000
0000005FFE3002FFFA00
0000009FFFD003FFFF40
000000BFFFB004FFFE10
0000005EFA10005DB200
00000001000000000000
00000000001100000000
0000000003DE40000000
000000008FFFE4000000
00000009FFFFFD000000
000002DFFFFFF9000000
00002DFFFFFFFB000000
0003EFFFFFFFFF300000
001DFFFFB63DFFB00000
00BFFFF90005FFF40000
06FFFF800000CFFC0000
1EFFF80000004FFF1000
5FFFD10000001FFF6000
9FFF50000001AFFF9000
BFFF1000028EFFFF7000
AFFFDAACEFFFFFFE2000
5FFFFFFFFFFFFFE40000
0AFFFFFFFFFFE9100000
009FFFFFFEB500000000
00014465100000000000
ENDCHAR
STARTCHAR divide
ENCODING 247
SWIDTH 559 0
DWIDTH 16 0
BBX 15 18 0 -1
BITMAP
0000000130000000
0000001EFB000000
000000AFFF900000
000000AFFFC00000
000000AFFF500000
0000003A97100000
0000000000000000
2569BCDDEEDC9200
CFFFFFFFFFFFFC30
BFFFFFFFFFFFFF70
5FFFFEDCCCB97400
0574100000000000
0000196300000000
0000AFFF60000000
0004FFFF70000000
0000EFFF30000000
00007FF800000000
0000043000000000
ENDCHAR
STARTCHAR oslash
ENCODING 248
SWIDTH 632 0
DWIDTH 18 0
BBX 17 22 0 -4
BITMAP
000000000011000000
0000000003DF604D50
000000008FFFF8FF80
00000008FFFFFFFF90
000001DFFFFFFFFF70
00002CFFFFFFFFFE20
0002EFFFFFFFFFF300
001DFFFFC8FFFFD000
00AFFFFA1DFFFFF500
05FFFF90BFFFEFFD00
0DFFF907FFFB4FFF20
5FFFD14FFFE20FFF70
9FFF63EFFF418FFFA0
AFFF3EFFF87EFFFF90
AFFFFFFFFFFFFFFF40
5FFFFFFFFFFFFFF600
0BFFFFFFFFFFFC3000
01CFFFFFFFD8200000
00AFFF873100000000
00AFFF200000000000
004FF9000000000000
000140000000000000
ENDCHAR
STARTCHAR ugrave
ENCODING 249
SWIDTH 584 0
DWIDTH 16 0
BBX 16 26 1 0
BITMAP
000006B100000000
00004FFC30000000
0000CFFFE3000000
0000CFFFFE300000
00001AFFFFE20000
0000008FFFFD1000
00000006FFFF3000
000000004DFF1000
0000000001650000
0000000000000930
0000000000001FE2
03C1000000006FF5
0CFC100000009FFA
0EFF50000000CFFE
2FFFB0000001FFFE
4FFFE0000007FFFB
7FFFA000001DFFF8
9FFF7000009FFFE1
9FFF600008FFFF80
9FFF6001AFFFFE10
8FFFA49EFFFFD500
7FFFFFFFFFFE3000
0EFFFFFFFFF60000
0AFFFFFFFF700000
03FFFFFFC4000000
004CDFB500000000
ENDCHAR
STARTCHAR uacute
ENCODING 250
SWIDTH 584 0
DWIDTH 16 0
BBX 16 25 1 0
BITMAP
0000000000009800
00000000002BFF70
0000000001DFFFE0
000000001CFFFFF1
00000001CFFFFC20
0000000BFFFFA000
0000001EFFF80000
0000000DFE500000
0000000371000930
0000000000001FE2
03C1000000006FF5
0CFC100000009FFA
0EFF50000000CFFE
2FFFB0000001FFFE
4FFFE0000007FFFB
7FFFA000001DFFF8
9FFF7000009FFFE1
9FFF600008FFFF80
9FFF6001AFFFFE10
8FFFA49EFFFFD500
7FFFFFFFFFFE3000
0EFFFFFFFFF60000
0AFFFFFFFF700000
03FFFFFFC4000000
004CDFB500000000
ENDCHAR
STARTCHAR ucircumflex
ENCODING 251
SWIDTH 584 0
DWIDTH 16 0
BBX 16 26 1 0
BITMAP
000000003A500000
00000008FFFB1000
000000AFFFFFC100
00001AFFFFFFFC20
0000DFFFD2BFFFE2
0000EFFE201CFFF2
00007FD30001BFA0
0000082000000810
0000000000000000
0000000000000930
0000000000001FE2
03C1000000006FF5
0CFC100000009FFA
0EFF50000000CFFE
2FFFB0000001FFFE
4FFFE0000007FFFB
7FFFA000001DFFF8
9FFF7000009FFFE1
9FFF600008FFFF80
9FFF6001AFFFFE10
8FFFA49EFFFFD500
7FFFFFFFFFFE3000
0EFFFFFFFFF60000
0AFFFFFFFF700000
03FFFFFFC4000000
004CDFB500000000
ENDCHAR
STARTCHAR udieresis
ENCODING 252
SWIDTH 584 0
DWIDTH 16 0
BBX 16 24 1 0
BITMAP
0000027000015430
0000AFFB0008FFF5
0000EFFF8008FFFD
0001FFFF6009FFF9
0000AFF500018E81
0000010000000000
0000000000000000
0000000000000930
0000000000001FE2
03C1000000006FF5
0CFC100000009FFA
0EFF50000000CFFE
2FFFB0000001FFFE
4FFFE0000007FFFB
7FFFA000001DFFF8
9FFF7000009FFFE1
9FFF600008FFFF80
9FFF6001AFFFFE10
8FFFA49EFFFFD500
7FFFFFFFFFFE3000
0EFFFFFFFFF60000
0AFFFFFFFF700000
03FFFFFFC4000000
004CDFB500000000
ENDCHAR
STARTCHAR yacute
ENCODING 253
SWIDTH 400 0
DWIDTH 11 0
BBX 15 29 1 -1
BITMAP
000000000007A000
00000000019FF900
000000000BFFFF20
00000000BFFFFF30
0000000AFFFFD300
0000009FFFFC1000
000000DFFFA10000
000000BFF7000000
0000002720000000
0000000000000000
0000000000000000
3C60000004CC1000
7FFC10004FFFD100
5FFF5004EFFFF300
3FFF801EFFFF8000
2FFFB0AFFFF80000
0EFFE6FFFFA00000
0BFFFFFFFB100000
07FFFFFFE2000000
01EFFFFF70000000
006FFFFD00000000
006FFFF400000000
01EFFFA000000000
07FFFE2000000000
1EFFF80000000000
7FFFE10000000000
CFFF600000000000
8FFD000000000000
09D4000000000000
ENDCHAR
STARTCHAR thorn
ENCODING 254
SWIDTH 579 0
DWIDTH 16 0
BBX 17 19 0 -1
BITMAP
000011000000000000
0005E8000000000000
000FFD000000000000
005FFF620000000000
00AFFFFFFECA710000
00DFFFFFFFFFFF8000
01FFFFFFFFFFFFF900
04FFFF54456DFFFF10
08FFFC00001CFFFF40
0CFFF90003CFFFFF40
0FFFF603BFFFFFF800
1FFFFACFFFFFFE5000
1FFFFFFFFFFE800000
3FFFFFFFFA40000000
1FFFFFB61000000000
0CFFF0000000000000
08FFF0000000000000
02FF90000000000000
001100000000000000
ENDCHAR
STARTCHAR ydieresis
ENCODING 255
SWIDTH 400 0
DWIDTH 11 0
BBX 15 26 1 -1
BITMAP
0000270000154200
000CFF90009FFE30
001FFFF600AFFFB0
003FFFF400BFFF70
000BFE400029E700
0000100000000000
0000000000000000
0000000000000000
3C60000004CC1000
7FFC10004FFFD100
5FFF5004EFFFF300
3FFF801EFFFF8000
2FFFB0AFFFF80000
0EFFE6FFFFA00000
0BFFFFFFFB100000
07FFFFFFE2000000
01EFFFFF70000000
006FFFFD00000000
006FFFF400000000
01EFFFA000000000
07FFFE2000000000
1EFFF80000000000
7FFFE10000000000
CFFF600000000000
8FFD000000000000
09D4000000000000
ENDCHAR
STARTCHAR dotlessi
ENCODING 305
SWIDTH 320 0
DWIDTH 9 0
BBX 7 18 1 -1
BITMAP
0002A200
001EF700
006FFE10
00BFFF20
00FFFF60
01FFFF40
05FFFE00
09FFF900
0DFFF500
2FFFF100
3FFFD000
4FFFB000
6FFF9000
5FFF9000
1FFFB000
0BFFC000
05FF8000
00530000
ENDCHAR
STARTCHAR Lslash
ENCODING 321
SWIDTH 632 0
DWIDTH 18 0
BBX 21 22 -3 -1
BITMAP
0000000052000000000000
00000003FFC70000000000
00000008FFFF4000000000
0000000CFFFF9000000000
0000002FFFFF3000000000
0000007FFFFD0000000000
000000DFFFF70000000000
000003FFFFFCB300000000
000019FFFFFFFF70000000
003AFFFFFFFFFD40000000
4DFFFFFFFFFC6000000000
8FFFFFFFFA200000000000
2FFFFFFFF3000000000000
05BBFFFFD0000000000000
0007FFFF80000000000000
000AFFFF603789AA710000
000AFFFFFEFFFFFFFE9200
0008FFFFFFFFFFFFFFFC00
0003FFFFFFFFFFFFFFFE10
0000BFFFFFFFFFFFFFFC10
00002DFFFFB74310242000
0000003541000000000000
ENDCHAR
STARTCHAR lslash
ENCODING 322
SWIDTH 533 0
DWIDTH 15 0
BBX 18 18 -3 -1
BITMAP
0000000B9400000000
0000002FFFA0000000
0000006FFFF1000000
000000BFFFA0000000
000002FFFF50000000
000007FFFE21000000
00000DFFFFFE700000
0017CFFFFFFFD00000
39EFFFFFFFD7100000
AFFFFFFFA400000000
5FFFFFFF1000000000
07ABFFFB0000000000
000AFFF90467885000
000AFFFFEFFFFFFD60
0008FFFFFFFFFFFFF1
0002EFFFFFFFFFFFF4
00008FFFFE98668850
000003653000000000
ENDCHAR
STARTCHAR OE
ENCODING 338
SWIDTH 1212 0
DWIDTH 34 0
BBX 35 22 0 -1
BITMAP
0000000000008A4000000000000000011000
00000000004AFFE2000000000358ACEFF500
0000000004EFFFFD3000036AEFFFFFFFFF80
000000005EFFFFFF8008EFFFFFFFFFFFFF80
0000000AFFFFFFFF308FFFFFFFFFFFFFFA10
000000BFFFFFFFFF507FFFFFFFFFFDA73000
00002CFFFFFFFFFFB05FFFFFFEC720000000
0001CFFFFFFFCFFFF41EFFFF300000000000
000AFFFFFE4209FFFB07FFFF9889A5000000
006FFFFFC20001EFFF4BFFFFFFFFFE400000
02EFFFFC1000007FFFDFFFFFFFFFFFF60000
0AFFFFB10000001DFFFFFFFFFFFFFFD30000
1FFFFF3000000009FFFFFFFFFFFFE8100000
6FFFF7000000000BFFFFFFA3544310000000
9FFFE000000003AFFFFFFE20000000000000
AFFFC0000015AFFFFFFFF900000037A30000
AFFFFC99BDEFFFFFFFFFFC99BCEEFFFD4000
6FFFFFFFFFFFFFFFFFFFFFFFFFFFFFFFD000
0CFFFFFFFFFFFFFFDEFFFFFFFFFFFFFF8000
02DFFFFFFFFFFFA616FFFFFFFFFFFFF70000
002AFFFFFFCB7200007EFFFFFDEB95100000
000002244100000000001332000000000000
ENDCHAR
STARTCHAR oe
ENCODING 339
SWIDTH 1010 0
DWIDTH 28 0
BBX 29 19 0 -1
BITMAP
000000000011000000000000000000
0000000004DF500000000013689700
000000008FFFF4000026ADFFFFFFA0
00000009FFFFFD018EFFFFFFFFFFD0
000002DFFFFFF908FFFFFFFFFFFC30
00002DFFFFFFFB06FFFFFFFC862000
0003EFFFFFFFFF43FFFF9530000000
001DFFFFB63DFFC0BFFF6556400000
00BFFFF80005FFF4CFFFFFFFF40000
06FFFF800000CFFEFFFFFFFFFF5000
1EFFF80000004FFFFFFFFFFFF91000
5FFFD10000001FFFFFFACBB9300000
9FFF40000002AFFFFF900000000000
BFFF1000039EFFFFFF200001582000
AFFFDABDEFFFFFFFFEBACDEFFFD300
5FFFFFFFFFFFFFFFFFFFFFFFFFF800
0AFFFFFFFFFFE99FFFFFFFFFFFC100
009FFFFFFEB6000BFFFFFFFDA60000
000144651000000024542100000000
ENDCHAR
STARTCHAR Scaron
ENCODING 352
SWIDTH 576 0
DWIDTH 16 0
BBX 20 31 0 -1
BITMAP
00000007200000072000
0000005FD400019FC000
000000DFFF300BFFF400
000000BFFFE29FFFF400
00000009FFFEFFFD3000
000000008FFFFFD20000
0000000007FFFC200000
00000000003960000000
00000000000000000000
00000000000145652000
0000000048DFFFFFF800
000016AEFFFFFFFFFF30
0017DFFFFFFFFFFFFFB0
05EFFFFFFFFFFFFFFFF3
3FFFFFFFFFC97A989B60
8FFFFFFF710000000000
AFFFFFFFE91000000000
9FFFFFFFFFE600000000
2DFFFFFFFFFF10000000
0159BDFFFFFF80000000
000000117DFFF4000000
00000000008FFC000000
0000000001DFFE000000
000000002BFFFD000000
00000029FFFFF8000000
00336AFFFFFFE1000000
05FFFFFFFFFE30000000
06FFFFFFFFD200000000
05FFFFFFE71000000000
01EFFFD7100000000000
00244200000000000000
ENDCHAR
STARTCHAR scaron
ENCODING 353
SWIDTH 463 0
DWIDTH 13 0
BBX 17 28 0 -1
BITMAP
000054000000630000
0003EE500007FE1000
000AFFF5008FFF7000
0009FFFF47FFFF6000
00007FFFEFFFE40000
000006FFFFFE400000
0000005EFFD3000000
000000029810000000
000000000000000000
000000000000000000
0000000158ACDB5000
000005BFFFFFFFE200
0039EFFFFFFFFFFA00
09FFFFFFFFFFFFFF10
6FFFFFFD8546546200
9FFFFFE50000000000
9FFFFFFFC400000000
3EFFFFFFFF10000000
0159ACEFFF90000000
00000006CFF4000000
000000004FF9000000
00000002EFF9000000
0000029FFFF5000000
0256BFFFFFC0000000
09FFFFFFFC10000000
09FFFFFF9100000000
06FFFEA30000000000
006741000000000000
ENDCHAR
STARTCHAR Ydieresis
ENCODING 376
SWIDTH 493 0
DWIDTH 14 0
BBX 16 29 1 -1
BITMAP
0000027000015430
0000AFFB0008FFF5
0000EFFF8008FFFD
0001FFFF6009FFF9
0000AFF500018E81
0000010000000000
0000000000000000
0520000000005800
4FE81000002CFF91
6FFFC00001CFFFFB
3FFFF2001BFFFFFC
1FFFF6009FFFFFE3
1FFFF803FFFFFE20
0DFFFC1DFFFFE400
0AFFFEBFFFFF6000
07FFFFFFFFF70000
02FFFFFFFFC00000
00BFFFFFFF300000
003FFFFFF9000000
000AFFFFE2000000
003FFFFF60000000
00BFFFFB00000000
04FFFFF300000000
0BFFFF9000000000
4FFFFF3000000000
AFFFF70000000000
BFFFE10000000000
5FFF800000000000
05BA000000000000
ENDCHAR
STARTCHAR Zcaron
ENCODING 381
SWIDTH 664 0
DWIDTH 19 0
BBX 21 32 -1 -2
BITMAP
0000000000270000003600
0000000000CF900004EF50
0000000005FFFA004FFFC0
0000000004FFFF83EFFFB0
00000000003EFFFEFFF800
000000000002EFFFFF7000
0000000000002CFFF60000
0000000000000179300000
0000000000000000000000
0000000011000000000000
000009DEFFFDDDEDDEA100
00000EFFFFFFFFFFFFF900
00000CFFFFFFFFFFFFFF50
000007FFFFFFFFFFFFFF60
000000ADCB99BFFFFFFE10
000000000003EFFFFFE300
00000000005FFFFFFA1000
0000000009FFFFFF800000
00000004DFFFFFF8000000
000001AFFFFFFF80000000
00002DFFFFFFE500000000
0008EFFFFFFB1000000000
01CFFFFFFE600000000000
08FFFFFFC2000001200000
0EFFFFF8000036BFE30000
3FFFFFA0159EFFFFFC5000
4FFFFFFEFFFFFFFFFF6000
2FFFFFFFFFFFFFFFF70000
09FFFFFFFFFFFFD8200000
01DFFFFFFFBC8300000000
0017EFFC96000000000000
0000120000000000000000
ENDCHAR
STARTCHAR zcaron
ENCODING 382
SWIDTH 547 0
DWIDTH 15 0
BBX 19 30 -1 -2
BITMAP
00000000720000007200
00000005FD400019FC00
0000000DFFF300BFFF40
0000000BFFFE29FFFF40
000000009FFFEFFFD300
0000000008FFFFFD2000
00000000007FFFC20000
00000000000396000000
00000000000000000000
00000000000000000000
00000000000000000000
00002689866776740000
00009FFFFFFFFFFF6000
00008FFFFFFFFFFFF100
00003FFFFFFFFFFFF100
0000058754AFFFFF9000
0000000007FFFFF80000
00000001AFFFFE300000
0000005DFFFFE3000000
00001AFFFFFE30000000
0003DFFFFFB100000000
018FFFFFE60000000000
08FFFFFB200000000000
0EFFFF800025BE500000
3FFFFB258DFFFFD70000
4FFFFFFFFFFFFFF50000
1EFFFFFFFFFFFB300000
05FFFFFFFEC720000000
006BFFC9410000000000
00001000000000000000
ENDCHAR
STARTCHAR circumflex
ENCODING 710
SWIDTH 754 0
DWIDTH 21 0
BBX 12 8 6 14
BITMAP
000006930000
0002CFFF6000
002DFFFFF800
03DFFFFFFF80
4FFFF93EFFFB
5FFFB004FFFC
0CFA10004EF5
027000000370
ENDCHAR
STARTCHAR caron
ENCODING 711
SWIDTH 754 0
DWIDTH 21 0
BBX 12 8 6 14
BITMAP
027000000360
0CF910004EF5
5FFFA003FFFC
4FFFF93EFFFB
03EFFFEFFF90
002DFFFFF800
0002CFFF7000
000007930000
ENDCHAR
STARTCHAR breve
ENCODING 728
SWIDTH 754 0
DWIDTH 21 0
BBX 12 7 6 15
BITMAP
027000000260
0CF800003DF4
4FFFA104EFFC
5FFFFFFFFFFD
05FFFFFFFFB1
004CFFFFE910
000026740000
ENDCHAR
STARTCHAR dotaccent
ENCODING 729
SWIDTH 754 0
DWIDTH 21 0
BBX 6 6 9 15
BITMAP
002700
0BFFA0
0EFFF8
1FFFF6
0AFF50
001000
ENDCHAR
STARTCHAR ring
ENCODING 730
SWIDTH 754 0
DWIDTH 21 0
BBX 9 9 8 14
BITMAP
00003B3000
0005EFD000
008FFFD000
07FFFFF600
3FFF8FFE00
AFFA5EFF30
DFFFFFFF40
AFFFFFF900
1AEEC93000
ENDCHAR
STARTCHAR ogonek
ENCODING 731
SWIDTH 754 0
DWIDTH 21 0
BBX 11 10 8 -8
BITMAP
001000000000
0AE000000000
5FF000000000
AFF100000000
AFF300000000
7FFA20000000
2FFFFECBBA10
05FFFFFFFFA0
003BFFFFFF70
000013576400
ENDCHAR
STARTCHAR tilde
ENCODING 732
SWIDTH 754 0
DWIDTH 21 0
BBX 14 6 5 15
BITMAP
0008CED80029CA
00CFFFFFB1DFFD
08FFFFFFFFFFF4
2FFFBAFFFFFFA0
7FFD10AFFFFA10
14200003552000
ENDCHAR
STARTCHAR hungarumlaut
ENCODING 733
SWIDTH 754 0
DWIDTH 21 0
BBX 16 9 4 12
BITMAP
000002B400000A70
00004EFE2002CFF5
0005FFFF802EFFFD
005FFFFFA2DFFFFE
04FFFFF82DFFFFB1
3EFFFF51CFFFF900
6FFFE402FFFF7000
4FFC2000EFD40000
0750000046100000
ENDCHAR
STARTCHAR endash
ENCODING 8211
SWIDTH 588 0
DWIDTH 16 0
BBX 15 5 0 5
BITMAP
0002556677653000
5EFFFFFFFFFFFB00
8FFFFFFFFFFFFFB0
4FFFFFFFFFFFFC60
09EB865444320000
ENDCHAR
STARTCHAR emdash
ENCODING 8212
SWIDTH 878 0
DWIDTH 25 0
BBX 23 5 0 5
BITMAP
03445699999AAAAA87641000
6FFFFFFFFFFFFFFFFFFFE610
4FFFFFFFFFFFFFFFFFFFFFC0
0BFFFFFFFFFFFFFFFFEDCA60
006986532111111100000000
ENDCHAR
STARTCHAR quoteleft
ENCODING 8216
SWIDTH 203 0
DWIDTH 6 0
BBX 7 10 2 12
BITMAP
00021000
007FE930
03FFFFB0
0AFFFF70
0EFFFC00
4FFFF400
7FFFB000
6FFF6000
3DFF3000
00340000
ENDCHAR
STARTCHAR quoteright
ENCODING 8217
SWIDTH 199 0
DWIDTH 6 0
BBX 7 10 2 12
BITMAP
00020000
007FB500
00CFFF50
01FFFF70
05FFFF40
0BFFFE10
4FFFF600
DFFFD000
7FFE3000
02820000
ENDCHAR
STARTCHAR quotesinglbase
ENCODING 8218
SWIDTH 204 0
DWIDTH 6 0
BBX 7 9 -3 -5
BITMAP
005D7100
00CFFF30
01FFFF60
05FFFF50
0AFFFF10
2FFFF800
CFFFE100
CFFF6000
07C50000
ENDCHAR
STARTCHAR quotedblleft
ENCODING 8220
SWIDTH 410 0
DWIDTH 11 0
BBX 13 10 2 12
BITMAP
00030000031000
00AFD710AFE820
05FFFF36FFFF80
0BFFFE1DFFFF40
0FFFF83FFFF900
3FFFF17FFFE100
6FFFA0AFFF8000
6FFF509FFF2000
4FFF205EFE0000
06BC0000330000
ENDCHAR
STARTCHAR quotedblright
ENCODING 8221
SWIDTH 425 0
DWIDTH 12 0
BBX 13 10 2 12
BITMAP
00020000011000
007FB5001DE820
00CFFF505FFFC0
01FFFF70BFFFC0
05FFFF42FFFF80
0BFFFE19FFFE20
4FFFF64FFFF700
DFFFD1EFFFC000
7FFE30AFFC2000
02820004700000
ENDCHAR
STARTCHAR quotedblbase
ENCODING 8222
SWIDTH 430 0
DWIDTH 12 0
BBX 13 9 -3 -5
BITMAP
005D71000AB400
00CFFF304FFFA0
01FFFF60AFFFC0
05FFFF51FFFF90
0AFFFF18FFFF30
2FFFF82EFFF900
CFFFE1CFFFD100
CFFF61DFFE4000
07C50019B20000
ENDCHAR
STARTCHAR bullet
ENCODING 8226
SWIDTH 299 0
DWIDTH 8 0
BBX 6 7 1 5
BITMAP
027300
3FFF70
CFFFF5
FFFFFB
EFFFF6
CFFFF1
4A9650
ENDCHAR
STARTCHAR ellipsis
ENCODING 8230
SWIDTH 768 0
DWIDTH 22 0
BBX 21 6 -1 -1
BITMAP
0220000003100000130000
0BFE90003FFC4000AFEA10
9FFFF101EFFFA007FFFF30
9FFFC001EFFF6007FFFE00
3FFF80009FFE2001FFF900
05B6000019A100004B7000
ENDCHAR
STARTCHAR perthousand
ENCODING 8240
SWIDTH 889 0
DWIDTH 25 0
BBX 25 20 1 0
BITMAP
00003C70000000029300000000
0005EFF10000003EF400000000
007FFFF3000004EFF200000000
06FFFFFA00003EFFD000000000
2EFF7EFF2004EFFF6000000000
7FFC6EFF702EFFF50000000000
AFFFFFFF62DFFE400000000000
6FFFFFF93EFFE3000000000000
07BCB823EFFE30000000000000
0000002EFFE200000000000000
000003DFFE3031000000040000
00004EFFE308FB000001BF6000
0005FFFD21BFFF10003DFFB000
006FFFD21CFFFF4003EFFFE100
04FFFD20AFFFFFC01EFFFFF700
1EFFD104FFD2DFF39FFA3FFE00
6FFF5009FFDBFFF7EFFCDFFF20
BFFE000AFFFFFFF4FFFFFFFD00
DFFB0003FFFFFC408FFFFFA200
7DB10000377520000577410000
ENDCHAR
STARTCHAR guilsinglleft
ENCODING 8249
SWIDTH 322 0
DWIDTH 9 0
BBX 10 13 -1 -1
BITMAP
0000001BB0
000001CFF2
00002CFFF2
0006EFFF60
05BFFFF700
3FFFFE4000
3FFFB10000
0EFFD30000
05FFFF6000
006FFFF300
0004EFF900
000029FE00
0000003600
ENDCHAR
STARTCHAR guilsinglright
ENCODING 8250
SWIDTH 341 0
DWIDTH 10 0
BBX 9 13 -1 -1
BITMAP
03E5000000
04FFC30000
00CFFE5000
005FFFF600
0005EFFF40
00002EFFB0
0001BFFFD0
004EFFFF90
05FFFFB200
3FFFE60000
8FFD200000
7FD2000000
0820000000
ENDCHAR
STARTCHAR fraction
ENCODING 8260
SWIDTH 541 0
DWIDTH 15 0
BBX 15 22 0 -1
BITMAP
0000000000000440
0000000000007FB0
000000000005FFD0
00000000002EFFC0
0000000001CFFFA0
000000000AFFFD10
000000005FFFE200
00000003EFFF4000
0000001DFFF60000
000000CFFF800000
000007FFFB000000
00005FFFE2000000
0004FFFE30000000
003EFFF500000000
01DFFF7000000000
0BFFFA0000000000
3FFFC10000000000
7FFF500000000000
AFFF200000000000
AFFF200000000000
6FFA000000000000
0351000000000000
ENDCHAR
STARTCHAR Euro
ENCODING 8364
SWIDTH 565 0
DWIDTH 16 0
BBX 16 17 -1 0
BITMAP
0000000000019B40
00000000016EFFF4
000000004DFFFFFE
0000002CFFFFFFFB
000004EFFFFFFFB2
00003EFFFFFD7200
0001DFFFFF800000
0009FFFFD4000000
28AFFFFFFFFEA100
6FFFFFFFFFFFFC10
3FFFFFFFFFFFFC10
0AFFFFB766531000
0017FFFC86543300
0001EFFFFFFFFFA0
00004EFFFFFFFFF4
000002BFFFFFFFD2
00000001479A9810
ENDCHAR
STARTCHAR Delta
ENCODING 8710
SWIDTH 403 0
DWIDTH 11 0
BBX 16 18 -1 -1
BITMAP
0001358ABBCCB950
0008FFFFFFFFFFF6
0007FFFFFFFFFFFD
0002FFFFFFFCB961
0000463BFFD00000
0000000EFF900000
0000004FFF500000
0000008FFF100000
000000DFFB000000
000004FFF7000000
00000AFFF3000000
00001FFFC0000000
00008FFF60000000
1356EFFFDB200000
DFFFFFFFFFE20000
CFFFFFFFFFE10000
7FFFDBAA77200000
0641000000000000
ENDCHAR
STARTCHAR minus
ENCODING 8722
SWIDTH 548 0
DWIDTH 15 0
BBX 16 5 -1 5
BITMAP
0001456677754100
1CEFFFFFFFFFFE30
1FFFFFFFFFFFFFF3
0DFFFFFFFFFFFEA1
04DC975444321000
ENDCHAR
STARTCHAR approxequal
ENCODING 8776
SWIDTH 323 0
DWIDTH 9 0
BBX 8 22 1 -1
BITMAP
00002200
0006FA00
003FFE00
008FFF80
00DFFFA0
03FFFFD0
05FFFFF1
08FFFFA0
0CFFFF50
1FFFFF10
5FFFFB00
8FFFF700
AFFFF400
BFFFF200
CFFFF000
EFFFD000
DFFFD000
9FFFE000
5FFFF100
1EFFF100
09FF9000
01310000
ENDCHAR
STARTCHAR fi
ENCODING 64257
SWIDTH 810 0
DWIDTH 23 0
BBX 23 18 -1 -1
BITMAP
00000000047ADEEA1004A000
0000015AEFFFFFFFD14FF300
0016BFFFFFFFFFFFF7AFFA00
00AFFFFFFFFECA8871EFFD00
00AFFFFFD730000004FFFF20
002EFFFF4000000005FFFE10
0003DFFE1000000009FFFA00
0001FFFA000000000DFFF500
05A9FFFB79BCB0002FFFF100
5FFFFFFFFFFFF8006FFFC000
7FFFFFFFFFFFF3007FFF9000
2EFFFFFFFEB940008FFF7000
04FFFD7410000000AFFF5000
05FFF500000000009FFF5000
09FFE100000000005FFF7000
07FFC000000000001EFF8000
01DFA0000000000009FF4000
001510000000000001520000
ENDCHAR
STARTCHAR fl
ENCODING 64258
SWIDTH 1012 0
DWIDTH 28 0
BBX 29 18 -1 -1
BITMAP
00000000047ADEEA105C6200000000
0000015AEFFFFFFFD1AFFE20000000
0016BFFFFFFFFFFFF7EFFF70000000
00AFFFFFFFFECA8876FFFF20000000
00AFFFFFD73000000AFFFC00000000
002EFFFF400000001EFFF600000000
0003DFFE100000006FFFF100000000
0001FFFA00000000BFFF9000000000
05A9FFFB79BCB002FFFF4000000000
5FFFFFFFFFFFF806FFFD0000000000
7FFFFFFFFFFFF30BFFF80000000000
2EFFFFFFFEB9401FFFF30000000000
04FFFD741000003FFFF12578872000
05FFF5000000004FFFFFFFFFFFFA20
09FFE1000000001FFFFFFFFFFFFF80
07FFC00000000009FFFFFFFFFFFFB0
01DFA00000000002EFFFFB87678710
001510000000000015641000000000
ENDCHAR
STARTCHAR .notdef
ENCODING -1
SWIDTH 370 0
DWIDTH 10 0
BBX 1 1 0 0
BITMAP
00
ENDCHAR
ENDFONT
